<svg version="1.1" xmlns="http://www.w3.org/2000/svg" viewBox="0 0 203.43778794557176 202" width="203.43778794557176" height="202">
  <!-- svg-source:excalidraw -->
  
  <defs>
    <style class="style-fonts">
      @font-face {
        font-family: "Virgil";
        src: url("https://excalidraw.com/Virgil.woff2");
      }
      @font-face {
        font-family: "Cascadia";
        src: url("https://excalidraw.com/Cascadia.woff2");
      }
    </style>
    
  </defs>
  <g stroke-linecap="round" transform="translate(10 81) rotate(0 14.5 55)"><path d="M0 0 C0 0, 0 0, 0 0 M0 0 C0 0, 0 0, 0 0 M-1.02 6.47 C0.57 4.81, 2.06 2.86, 5.06 0.14 M-0.5 6.27 C1.45 4.57, 3.21 2.5, 4.76 0.63 M1 10.93 C2.19 7.43, 8.31 3.43, 12.11 -1.25 M0.85 12.56 C4.79 7.77, 8.18 2.85, 11.28 0.72 M-1.39 19.52 C2.32 14.51, 5.47 8.7, 16.05 0.37 M0.34 17.71 C4.39 11.8, 9.91 6.4, 15.48 0.03 M1.06 23.91 C5.35 17.87, 11.15 11.3, 20.4 -1.7 M1.21 23.82 C7.63 16.1, 12.9 8.88, 20.75 0.53 M-1.29 28.6 C6.02 24.23, 14.39 15.22, 25.32 1.84 M-0.01 30.75 C6.57 21.23, 15.25 13.51, 26.1 -0.33 M-2 37.49 C6.17 27.09, 17.39 20.21, 32.48 1.23 M0.03 36.36 C6.33 28.11, 14.7 20.7, 30.12 0.68 M-1.55 44.1 C7.88 33.54, 14.29 26.13, 28.84 7.7 M0.85 42.2 C8.94 32.67, 17.17 21.86, 30.04 7.1 M-0.62 48.19 C9.63 34.8, 24.32 23.13, 30.5 14.72 M0.32 48.18 C7.16 40.05, 15.3 32.09, 30.01 13.09 M-0.87 54.81 C8.15 45.34, 14.88 39.57, 31.61 18.37 M0.44 54.57 C9.09 44.05, 19.27 32.78, 29.52 19.84 M-1.44 62.6 C8.95 54.14, 14.25 42.73, 32.27 27.16 M0.21 60.41 C7.41 52.68, 13.53 45.65, 31.72 26.37 M0.31 66.85 C10.52 53.98, 20.85 41.75, 29.92 30.3 M-0.6 67.57 C6.14 59.13, 14.51 49.8, 30.34 31.9 M-0.49 72.07 C9.65 63.32, 15.68 53.7, 30.7 36.81 M0.74 73.38 C10.98 61.32, 20.2 50.32, 29.44 37.92 M0.52 78.57 C8.21 69.86, 14.44 60.95, 32.1 44.02 M-0.91 80.18 C6.34 71.72, 14.4 64.18, 31.61 44.8 M2.19 83.48 C10.06 75.76, 19.3 62.93, 31.69 52.19 M0.21 84.44 C6.21 77.08, 12.22 69.84, 31.14 49.38 M-0.7 91.13 C9.14 82.03, 20.46 68.71, 32.42 57.56 M0.67 92.1 C10.06 78.73, 23.13 65.93, 30.74 56.04 M-0.14 98.03 C12.52 84.43, 22 69.91, 32.08 62.63 M0.57 97.66 C9.2 86.91, 20.74 75.29, 31.54 62.11 M1.79 103.47 C8.37 93.14, 17.84 81.97, 28.51 69.25 M0.74 103.76 C6.34 95.85, 13.66 88.28, 29.72 68.88 M-0.3 110.14 C8.76 103.11, 12.61 93.94, 32.38 73.2 M-1.05 109.82 C10.13 98.38, 21.79 85.25, 29.81 75.23 M2.73 112.05 C11.84 105.62, 17.28 95.92, 29.89 80.71 M2.25 113.05 C10.04 103.46, 19.21 94.43, 30.78 80.26 M8.79 112.99 C15.53 101.91, 23.74 92.58, 30.04 87.53 M8.68 112.91 C15.31 105.37, 22.28 96.76, 29.88 87.32 M12.46 112.81 C19.5 106.55, 21.77 103.36, 32.1 91.31 M13.59 112.36 C18.1 106.19, 24.15 100.37, 31.46 92.41 M17.79 113.57 C22.92 106.91, 26.86 105.13, 29 98.61 M17.95 112.3 C21.97 108.11, 26.69 104.97, 30.74 100.12 M23.66 112.89 C26.17 110.88, 27.01 108.75, 30.02 105.06 M23.96 112.02 C26.35 109.85, 28.72 106.71, 30.46 104.83" stroke="#868e96" stroke-width="0.5" fill="none"/><path d="M1.59 0.5 C6.46 1.14, 13.31 1.1, 29.86 1.72 M-0.62 -0.69 C7.9 -0.09, 14.72 0.23, 28.18 -0.54 M27.51 -1.71 C29.48 41.9, 29.54 84.09, 30 108.94 M28.44 0.05 C28.88 37.72, 28.51 76.9, 29.27 109.3 M27.6 109.42 C18.85 108.39, 9.97 110.78, -0.06 110.25 M29.97 109.86 C20.43 110.08, 11.36 109.56, -0.92 110.34 M-0.51 111.65 C-0.91 84.33, -1.09 58.19, 1.85 1.36 M-0.19 110.94 C1.3 78.37, 1.16 46.13, 0.51 0.75" stroke="#495057" stroke-width="1" fill="none"/></g><g stroke-linecap="round" transform="translate(16.25 88.5) rotate(0 7.5 4)"><path d="M0 0 C0 0, 0 0, 0 0 M0 0 C0 0, 0 0, 0 0 M-0.81 6.49 C1.01 4.2, 3.32 2.2, 5.08 0.47 M-0.17 6.43 C1.23 4.81, 2.06 3.8, 5.13 0.25 M0.88 9.39 C6.16 5.8, 9.68 1.45, 11.78 -1.3 M2.48 10.1 C4.23 7.1, 7.35 4.8, 10.14 -0.31 M6.34 10.24 C8.86 5.95, 12.83 3.91, 15.91 0.73 M6.76 9.53 C8.81 7.8, 10.58 5.83, 15.55 -0.09 M12.5 9.86 C12.98 9.32, 13.64 8.16, 15.43 6.83 M12.88 9.68 C13.32 8.92, 14.12 8.13, 15.24 6.86" stroke="#12b886" stroke-width="0.5" fill="none"/><path d="M-0.45 0.86 C3.93 0.79, 9.7 1.25, 14.52 0.32 M0.09 0.13 C5.25 0.48, 11.13 -0.3, 15.55 -0.01 M15.2 0.33 C15.16 2.61, 15.34 3.24, 15.38 7.42 M15.27 -0.21 C15.08 2.31, 15.06 4.01, 15.02 7.69 M14.04 6.64 C8.49 8.39, 3.86 8.15, 0.14 7.75 M15.3 8.19 C11.63 7.78, 7.1 8.24, -0.49 8.41 M-0.12 8.08 C-0.18 4.82, 0.76 2.23, -0.08 -0.38 M0.31 8.1 C0.27 5.71, 0.22 3.8, -0.26 0.39" stroke="#000000" stroke-width="1" fill="none"/></g><g stroke-linecap="round" transform="translate(16.25 174.5) rotate(0 7.5 4)"><path d="M0 0 C0 0, 0 0, 0 0 M0 0 C0 0, 0 0, 0 0 M-0.77 6.19 C1.47 4.3, 3.12 2.77, 4.5 -0.11 M-0.06 6.24 C0.9 5.06, 2.67 3.05, 5.29 0.58 M2.99 9.43 C5.36 6.55, 7.28 4.01, 10.4 1.13 M1.92 9.92 C5.69 6.77, 7.78 2.3, 10.74 -0.45 M6.09 9.1 C10.44 6.68, 13.48 3.59, 14.48 0.94 M7.04 9.82 C8.99 7.79, 10.94 5.34, 15.02 0.58 M12.44 9.95 C13.34 8.53, 14.36 8.08, 15.31 7.1 M12.59 9.79 C13.33 9.04, 14.03 8.24, 15.19 6.59" stroke="#12b886" stroke-width="0.5" fill="none"/><path d="M-0.6 0.83 C5.52 1.2, 9.27 0.24, 16.38 -0.93 M-0.63 0.37 C2.85 -0.43, 7.49 -0.04, 14.47 -0.56 M15.22 0.77 C15.42 1.29, 15.4 2.86, 14.75 7.55 M15.12 0.16 C15.16 2.16, 15.08 4.56, 15.28 7.72 M14.04 8.43 C10.89 8.06, 7.01 7.61, -0.9 9.45 M15.23 7.8 C10.02 8.3, 5.94 8.45, 0.71 7.81 M-0.2 7.97 C0.75 5.48, -0.07 1.5, -0.15 -0.15 M0.26 7.96 C0.14 5.14, -0.32 2.08, 0 -0.19" stroke="#000000" stroke-width="1" fill="none"/></g><g stroke-linecap="round" transform="translate(16.25 140.10000000000002) rotate(0 7.5 4)"><path d="M0 0 C0 0, 0 0, 0 0 M0 0 C0 0, 0 0, 0 0 M-0.19 6.17 C1.51 4.64, 2.56 2.18, 4.72 0.53 M-0.49 6.67 C1.46 4.45, 3.24 2.93, 4.71 -0.02 M3.3 8.79 C5.49 5.88, 6.41 5.66, 11.47 0.72 M2.63 10.39 C4.62 6.05, 8.2 2.49, 10.98 -0.41 M7.37 10.16 C10.09 7.59, 11.28 4.78, 14.67 -0.34 M7 9.94 C8.8 7.73, 10.03 6.37, 15.56 -0.05 M12.56 9.42 C13.7 8.84, 14.44 8.12, 15.25 7.01 M12.63 9.86 C13.35 9.06, 14.01 7.97, 15.17 6.72" stroke="#12b886" stroke-width="0.5" fill="none"/><path d="M0.65 1.29 C4.88 0.24, 12.09 -1.01, 13.97 0.18 M-0.62 -0.4 C5.32 -0.09, 9 -0.63, 14.36 0.19 M15.4 -0.42 C15.4 2.15, 14.77 5.01, 15.04 8.54 M15.11 -0.28 C15.05 1.67, 15.3 3.69, 14.88 7.74 M14.95 8.19 C12 7.79, 7.81 9.49, -0.22 8.61 M14.31 8.26 C9.64 8.37, 5.96 7.77, 0.62 7.88 M0.74 8.54 C-0.06 5.14, -0.13 2.88, 0.76 0.62 M0.2 8.3 C-0.31 5.79, -0.05 2.6, 0.05 0.27" stroke="#000000" stroke-width="1" fill="none"/></g><g stroke-linecap="round" transform="translate(16.25 122.9) rotate(0 7.5 4)"><path d="M0 0 C0 0, 0 0, 0 0 M0 0 C0 0, 0 0, 0 0 M-0.17 6.51 C0.69 4.28, 2.35 3.28, 5.04 0.77 M-0.12 6.28 C1.44 5.01, 2.22 2.85, 4.87 0.63 M3.25 8.51 C4.11 8.32, 7.52 5.23, 11.28 -0.41 M1.61 9.5 C4.87 6.13, 7.87 3, 10.68 -0.53 M7.39 10.54 C7.81 8.59, 9.87 5.16, 14.41 0.23 M7.02 9.72 C8.65 7.95, 11.34 4.85, 15.81 -0.14 M12.81 9.84 C13.62 9.08, 14.48 7.93, 15.24 6.43 M12.61 9.88 C13.43 8.63, 14.25 7.78, 15.43 6.92" stroke="#12b886" stroke-width="0.5" fill="none"/><path d="M-0.48 0.32 C6.71 -1.05, 9.63 0.05, 15.27 -1.26 M0.55 -0.01 C4.72 -0.48, 9.86 0.27, 15.31 0.21 M15.38 -0.58 C14.79 2.73, 15.08 6.89, 14.58 8.25 M15.02 -0.31 C15.3 2.45, 14.91 5.2, 14.64 7.74 M15.14 7.75 C9.17 9.47, 4.92 8.63, 0.38 8.46 M14.51 8.41 C11.61 7.86, 7.42 7.94, 0.08 7.82 M-0.08 7.62 C-0.23 5.47, 0.68 3.88, 0.2 0.51 M-0.26 8.39 C-0.04 5.5, 0.01 3.64, 0.04 -0.18" stroke="#000000" stroke-width="1" fill="none"/></g><g stroke-linecap="round" transform="translate(16.25 105.69999999999999) rotate(0 7.5 4)"><path d="M0 0 C0 0, 0 0, 0 0 M0 0 C0 0, 0 0, 0 0 M-0.75 5.92 C0.9 4.92, 2.64 3.51, 4.67 -0.09 M0.05 6.62 C1.38 3.81, 3.47 2.24, 4.88 0.73 M1.87 10.94 C4.77 8.42, 6.48 5.1, 10.92 1.02 M2.21 9.37 C5.89 5.57, 8.95 1.59, 10.11 0.11 M5.95 10.75 C8.69 6.48, 11.01 4.09, 14.99 0.15 M6.49 10.4 C9.35 7.17, 11.9 4.42, 15.95 0.05 M12.69 10.12 C13.19 9.36, 13.76 8.13, 15.44 6.52 M12.57 9.61 C13.51 8.63, 14.72 7.75, 15.26 6.63" stroke="#12b886" stroke-width="0.5" fill="none"/><path d="M1.38 -0.93 C4.76 0.15, 11.84 -1.29, 15.75 -1.24 M-0.53 -0.56 C3.05 0.19, 7.69 0.21, 15.73 0.37 M14.75 -0.45 C15.08 2.52, 14.62 4.2, 15.33 8.22 M15.28 -0.28 C14.89 1.59, 14.64 3.43, 15.12 7.99 M14.1 9.45 C10.09 8.58, 5.99 8.43, -0.4 6.62 M15.71 7.81 C10.6 7.97, 5.04 7.9, -0.02 8.7 M-0.15 7.85 C0.76 5.68, 0.21 2.63, -0.08 0.4 M0 7.81 C0.1 5.27, 0.09 1.82, 0.05 0.27" stroke="#000000" stroke-width="1" fill="none"/></g><g stroke-linecap="round" transform="translate(16.25 157.3) rotate(0 7.5 4)"><path d="M0 0 C0 0, 0 0, 0 0 M0 0 C0 0, 0 0, 0 0 M-0.52 6.57 C1.48 4.94, 2.75 2.19, 5.54 0.64 M-0.54 6.02 C1 5.01, 2.43 3.46, 4.68 0.71 M2.95 10.53 C4.49 7.34, 5.86 6.78, 11.85 -1.02 M2.45 9.4 C4.33 6.81, 5.96 4.92, 10.64 0.11 M6.14 9.47 C8.79 6.75, 12.2 3.42, 15.23 0.19 M7.03 9.76 C9.38 7.32, 11.54 5.19, 15.09 0.45 M12.63 10.03 C13.47 8.44, 14.53 7.55, 15.6 6.48 M12.54 9.73 C13.8 8.84, 14.6 7.44, 15.51 6.68" stroke="#12b886" stroke-width="0.5" fill="none"/><path d="M-1.03 0.18 C5.09 -1.16, 10.4 -1.14, 14.19 1.1 M-0.64 0.19 C4.79 0.32, 9.69 0.49, 14.6 0.36 M15.04 0.54 C14.56 2.07, 15.3 3.86, 14.44 8.05 M14.88 -0.26 C14.69 1.52, 15.17 3.53, 15.05 8.04 M14.78 8.61 C11.13 8.6, 6.1 6.76, 0.52 7.03 M15.62 7.88 C9.76 7.78, 4.34 8.66, 0.51 7.92 M0.76 8.62 C0.22 6.49, -0.07 4.36, 0.6 -0.52 M0.05 8.27 C0.04 4.63, 0.05 1.9, 0.05 -0.2" stroke="#000000" stroke-width="1" fill="none"/></g><g stroke-linecap="round" transform="translate(99 119) rotate(0 39 36.5)"><path d="M0 0 C0 0, 0 0, 0 0 M0 0 C0 0, 0 0, 0 0 M-0.21 6.8 C0.7 4.48, 2.84 3.76, 4.76 0.98 M-0.38 6.67 C1.54 4.68, 3.2 2.52, 4.6 0.29 M0.93 11.58 C4.5 8.58, 9.74 1.35, 9.95 0.23 M0.2 11.43 C1.91 9.41, 5.06 6.56, 10.88 -0.73 M-1.98 18.29 C4.5 11.96, 10.34 5.74, 14.34 -1.51 M0.17 17.72 C5.75 11.94, 9.78 6.41, 15.87 0.21 M-0.31 22.63 C9.04 13.39, 18.09 3.68, 22.65 -1.72 M0.66 25.08 C4.94 17.95, 11.14 12.54, 21.78 0.61 M-1.22 31.85 C8.02 21.33, 14.37 11.73, 24.96 -1.11 M-0.46 31.29 C6.13 25.23, 10.99 17.24, 25.54 -0.28 M-1.28 36.97 C11.55 24.11, 19.63 11.02, 31.15 1.25 M-1.04 37.63 C5.5 27.94, 13.28 20.6, 31.37 -0.38 M0.41 41.2 C12.73 26.32, 26.15 12.58, 36.13 -1.65 M-0.52 43.29 C10.46 31.12, 21.14 18.95, 36.74 0.47 M-1.01 50.59 C14.86 30.62, 28.93 13.84, 41.83 -0.51 M-0.65 49.01 C10.87 37.46, 19.78 25.04, 41.73 0.76 M1.09 54.99 C14.84 35.8, 30.22 19.26, 46.63 0.66 M1.18 54.16 C10.05 42.6, 22.14 28.58, 47 0.73 M-1.72 62.42 C16.06 42.65, 36.13 22.66, 51.26 0.79 M-0.12 60.05 C17.85 40.81, 34.23 20.42, 53.12 0.66 M0.34 68.13 C13.54 49.52, 30.6 31.42, 56.26 0.12 M-0.57 67.09 C15.13 49.13, 30.68 31.24, 58.57 0.25 M-0.01 73.13 C23.74 44.35, 44.88 18.97, 63.93 0.46 M0.01 72.32 C21.58 49.25, 42.77 23.45, 63.07 -1.06 M4.85 74.77 C18.84 59.36, 34.39 41.24, 67.75 -0.43 M5.51 73.98 C29.91 44.74, 57.01 14.26, 69.51 -0.74 M8.98 71.87 C28.31 52.93, 46.72 30.17, 74.32 -0.62 M11.46 73.76 C27.15 54.5, 45.33 35.03, 75.37 -0.81 M16.07 74.92 C39.09 47.2, 61.5 22.43, 80.15 1.15 M15.74 72.99 C34.29 51.51, 54.25 28.9, 77.96 0.23 M22.1 74.46 C43.95 49.97, 65.04 23.22, 78.97 4.72 M21.71 72 C43.8 47.1, 65.77 21.86, 79.19 6.78 M26.81 73.37 C45.86 50.7, 64.11 28.86, 78.97 13.32 M27.13 72.54 C41.81 56.11, 56.21 38.29, 79.3 11.92 M33.64 73.18 C42.22 60.3, 52.89 50.22, 78.97 17.65 M32.54 73.05 C45.45 56.55, 59.24 41.08, 78.5 19.54 M37.13 74.41 C46.71 62.87, 55.4 51.9, 77.7 25.2 M36.2 73.03 C50.62 56.32, 66.49 39.96, 78.71 24.7 M42.89 74.84 C54.63 54.95, 71.72 40.67, 80.58 32.82 M42.46 72.39 C52.37 63.13, 59.6 52.11, 77.8 32.22 M47.02 73.87 C56.67 64.09, 66.08 51.44, 78.95 37.75 M46.72 73.8 C56.06 62.96, 63.47 54.41, 79.3 36.74 M52.08 74.78 C60.67 66.82, 67.55 58.42, 77.52 41.98 M53.76 72.01 C59.96 64.73, 66.12 58.59, 79.3 43.11 M58.48 73.11 C62 66.1, 68.8 60.06, 77.66 51.24 M58.73 72.22 C64.81 66.21, 71.36 58.06, 78.26 50.44 M64.44 70.89 C67.69 66.58, 73.83 62.5, 80.1 55.63 M63.5 73.39 C68.5 67.09, 75.36 61.46, 79.12 54.73 M69.31 73.05 C72.48 70.08, 75.21 68.8, 77.96 60.59 M69.4 72.75 C71.94 70.4, 72.94 68.34, 78.6 62.29 M74.41 73.04 C76.22 70.31, 78.2 68.24, 79.66 66.9 M74.53 72.65 C75.91 70.91, 77.6 69, 79.32 67.51" stroke="#868e96" stroke-width="0.5" fill="none"/><path d="M0.36 -1.67 C19.58 -1.74, 36.1 1.37, 77.97 -1.41 M0.41 0.28 C18.56 0.31, 34.65 0.28, 77.28 -0.32 M76.96 0.62 C78.85 18.38, 76.64 35.79, 76.43 74.4 M77.1 -0.64 C78.08 16.77, 77.92 33.7, 77.83 72.4 M78.5 73.61 C46.52 71.47, 16.8 72.02, 1.09 74.89 M78.1 72.75 C56.54 73.81, 35.83 72.78, -0.47 72.81 M0.51 74.29 C-0.9 53.51, 0.81 30.7, 1.96 0.01 M0.1 72.55 C0.05 55.21, 0.03 35.57, 0.62 0.93" stroke="#000000" stroke-width="1" fill="none"/></g><g stroke-linecap="round" transform="translate(154 129.5) rotate(0 7.5 4)"><path d="M0 0 C0 0, 0 0, 0 0 M0 0 C0 0, 0 0, 0 0 M-0.58 5.95 C1.97 4.71, 2.88 3.1, 5.42 -0.19 M-0.37 6.77 C0.53 5.47, 1.53 3.8, 5.35 0.62 M2.39 10.84 C6.33 5.3, 7.61 2.99, 9.81 0.67 M1.58 9.92 C4.17 7.61, 6.43 4.52, 10.94 -0.51 M6.46 9.96 C8.92 7.57, 10.6 4.06, 16.14 0.21 M7.42 9.86 C8.6 7.95, 11.36 5.37, 16.23 0.15 M12.82 9.54 C13.96 8.4, 14.97 7.18, 15.1 6.35 M12.63 9.65 C13.65 8.78, 14.38 8.06, 15.35 6.78" stroke="#fd7e14" stroke-width="0.5" fill="none"/><path d="M0.75 -1.24 C3.88 1.23, 9.35 -0.94, 13.88 -1.28 M0.73 0.37 C4.48 0.32, 9.21 -0.28, 14.58 0.03 M15.33 0.22 C14.4 2.99, 14.33 6.44, 14.44 7.77 M15.12 -0.01 C14.98 1.93, 14.86 3.54, 15.39 7.94 M14.6 6.62 C10.41 7.07, 5.6 9.46, -0.38 9.24 M14.98 8.7 C11.24 7.89, 6.11 7.82, -0.14 8.71 M-0.08 8.4 C0.58 4.46, 0.76 1.96, -0.38 0.09 M0.05 8.27 C0.04 4.86, 0.24 2.49, 0.36 0.33" stroke="#000000" stroke-width="1" fill="none"/></g><g stroke-linecap="round" transform="translate(131 129.5) rotate(0 7.5 4)"><path d="M0 0 C0 0, 0 0, 0 0 M0 0 C0 0, 0 0, 0 0 M0.29 6.68 C1.37 4.92, 3.88 1.64, 4.24 0.12 M-0.57 6.75 C1.3 4.05, 3.98 2.16, 5.22 0.56 M3.32 8.79 C3.84 7.26, 5.89 5.09, 9.88 0.07 M2.11 9.93 C4.29 7, 6.3 4.9, 10.3 -0.64 M6.7 10 C8.8 6.08, 12.65 4.29, 14.87 0.71 M6.56 10.26 C9.15 7.86, 11.54 5.53, 16.08 0.14 M12.97 9.5 C13.6 8.74, 13.66 8.01, 15.34 6.88 M12.89 9.7 C13.9 8.68, 14.84 7.4, 15.23 6.6" stroke="#fd7e14" stroke-width="0.5" fill="none"/><path d="M-0.81 1.1 C3.22 -0.94, 5.37 -1.16, 15.37 0.61 M-0.4 0.36 C4.37 -0.31, 9.41 -0.04, 15.51 -0.39 M14.44 0.05 C14.4 3.2, 14.47 5.06, 14.49 7.28 M15.05 0.04 C14.96 1.65, 15.41 3.72, 15.16 8.1 M15.52 7.03 C10.86 9.28, 4.7 9.1, -0.23 8.15 M15.51 7.92 C10.52 8, 6.59 8.85, 0.58 8.19 M0.6 7.48 C0.79 5.09, -0.37 2.26, 0.54 0.08 M0.05 7.8 C0.24 6.33, 0.35 4.25, -0.08 0.24" stroke="#000000" stroke-width="1" fill="none"/></g><g stroke-linecap="round" transform="translate(109 129.5) rotate(0 7.5 4)"><path d="M0 0 C0 0, 0 0, 0 0 M0 0 C0 0, 0 0, 0 0 M-0.49 7.01 C1.41 4.35, 1.5 3.2, 5.54 0.15 M-0.65 6.33 C2.2 4.24, 4.14 1.81, 4.87 0.45 M1.55 9.99 C4.44 6.8, 7.77 2.46, 9.64 -1.08 M2.3 9.21 C5.15 6.13, 7.25 2.85, 10.58 -0.35 M6.26 8.94 C10.08 7.22, 11.26 4.91, 14.68 0.99 M7.26 10.06 C9.97 7.43, 12.02 4.89, 15.15 0.47 M13.01 9.41 C13.11 8.63, 14 8.41, 15.75 6.53 M12.83 9.88 C13.37 9.04, 13.91 8.09, 15.49 6.75" stroke="#fd7e14" stroke-width="0.5" fill="none"/><path d="M-0.02 -1.06 C2.15 -1.39, 6.9 0.5, 15.41 1.45 M-0.54 -0.24 C4.83 -0.04, 11.01 -0.46, 15.23 0.31 M14.37 0.56 C14.39 2.39, 14.43 4.51, 14.49 8.23 M14.93 -0.24 C15.4 2.32, 15.17 4.85, 15.12 7.89 M15.82 9.41 C11.5 9.14, 8.53 8.06, -0.37 7.95 M14.65 7.86 C8.97 8.69, 3.8 8.18, 0.48 7.92 M0.78 8 C-0.44 5.29, 0.48 2.47, -0.36 0.11 M0.25 8.37 C0.35 5.39, -0.08 2.36, -0.07 0.27" stroke="#000000" stroke-width="1" fill="none"/></g><g stroke-linecap="round" transform="translate(155 150.5) rotate(0 7.5 4)"><path d="M0 0 C0 0, 0 0, 0 0 M0 0 C0 0, 0 0, 0 0 M0.17 5.84 C0.77 4.09, 3.83 2.09, 5.73 -0.25 M0.1 6.66 C2.07 4.26, 3.76 1.8, 5.31 0.74 M1.28 10.48 C3.31 7.67, 4.97 4.33, 10.91 -0.01 M2.41 9.3 C4.49 6.08, 7.53 3.2, 10.54 -0.23 M7.61 10.02 C8.87 7.76, 11.16 5.2, 15.06 -0.73 M7.7 9.96 C10.26 6.82, 12.04 4.02, 15.29 0.72 M12.47 9.37 C13.33 9.19, 14.37 8.12, 15.17 7.03 M12.73 9.8 C13.32 8.76, 14.32 8.06, 15.33 6.6" stroke="#fd7e14" stroke-width="0.5" fill="none"/><path d="M-1.12 -1.28 C5.98 0.72, 11.62 1.56, 15.75 -0.79 M-0.42 0.03 C5.72 -0.34, 10.66 0.35, 15.2 -0.52 M14.44 -0.23 C14.43 1.72, 14.42 5.13, 14.98 8.1 M15.39 -0.06 C15.15 2.58, 15.11 4.84, 14.63 8.14 M14.62 9.24 C11.24 8.29, 7.58 8.09, 1.39 9.02 M14.86 8.71 C11.24 8.16, 6.79 7.89, 0.38 8.56 M-0.38 8.09 C0.46 6.2, -0.44 4.35, 0.54 0.09 M0.36 8.33 C-0.13 6.24, -0.12 4.27, -0.02 -0.36" stroke="#000000" stroke-width="1" fill="none"/></g><g stroke-linecap="round" transform="translate(132 150.5) rotate(0 7.5 4)"><path d="M0 0 C0 0, 0 0, 0 0 M0 0 C0 0, 0 0, 0 0 M-1.01 6.16 C2.23 3.95, 4.4 1.27, 5.7 -0.42 M-0.03 6.6 C1.05 4.75, 2.97 3.33, 4.68 0.19 M1.35 9.88 C3.87 5.59, 7.84 3.55, 10.93 0.37 M1.77 9.17 C3.82 7.44, 5.59 5.47, 10.56 -0.45 M6.34 10.52 C7.89 8.77, 10.04 5, 15.87 0.66 M7.56 9.95 C8.99 7.47, 11.59 4.88, 15.23 0.78 M12.72 9.9 C13.72 8.91, 13.71 8.77, 15.28 6.93 M12.6 9.62 C13.84 8.65, 14.64 7.39, 15.27 6.6" stroke="#fd7e14" stroke-width="0.5" fill="none"/><path d="M0.37 0.61 C3.85 1.58, 7.63 -0.67, 15.72 -1.08 M0.51 -0.39 C4.26 0.3, 8.25 -0.53, 15.05 -0.59 M14.49 -0.72 C14.43 3.19, 14.92 6.02, 15.08 7.87 M15.16 0.1 C15.2 1.81, 14.71 3.98, 14.74 8.22 M14.77 8.15 C8.72 8.07, 4.56 9.14, -0.15 7.29 M15.58 8.19 C11.27 8.06, 6.95 8.71, -0.49 8.74 M0.54 8.08 C-0.32 5.7, 0.58 3.28, -0.4 0.5 M-0.08 8.24 C-0.14 5.13, -0.09 1.35, -0.1 0.39" stroke="#000000" stroke-width="1" fill="none"/></g><g stroke-linecap="round" transform="translate(110 150.5) rotate(0 7.5 4)"><path d="M0 0 C0 0, 0 0, 0 0 M0 0 C0 0, 0 0, 0 0 M0.29 6.19 C1.75 4.41, 2.93 2.85, 4.84 1.08 M-0.38 6.49 C1.94 4.54, 3.23 1.8, 5.05 0.11 M1.11 8.74 C5.46 6.32, 8.5 3.23, 9.49 0.58 M2.05 9.46 C4 7.43, 5.96 4.98, 10.03 0.22 M6.15 10.8 C9.07 6.2, 12.37 4.73, 15.47 1.55 M6.62 10.28 C9.02 7.87, 11.29 5.25, 15.08 -0.1 M13.13 9.55 C13.09 9.42, 13.74 8.69, 15.63 6.72 M12.87 9.77 C13.58 8.65, 14.38 7.66, 15.22 6.55" stroke="#fd7e14" stroke-width="0.5" fill="none"/><path d="M0.41 1.45 C3.97 -0.86, 7.16 -1.14, 14.52 -0.83 M0.23 0.31 C4.77 -0.45, 9.18 -0.51, 15.52 -0.52 M14.49 0.23 C14.92 2.27, 15.02 4.2, 14.52 8.77 M15.12 -0.11 C14.66 2.42, 14.77 4.79, 15.38 7.9 M14.63 7.95 C10.65 9.03, 3.37 7.31, -0.28 7.71 M15.48 7.92 C9.46 8.6, 2.68 8.77, 0 7.65 M-0.36 8.11 C0.49 5.6, -0.45 3.52, 0.74 0.72 M-0.07 8.27 C-0.01 4.58, -0.08 2.26, 0.12 -0.38" stroke="#000000" stroke-width="1" fill="none"/></g><g stroke-linecap="round" transform="translate(154.5 171.5) rotate(0 7.5 4)"><path d="M0 0 C0 0, 0 0, 0 0 M0 0 C0 0, 0 0, 0 0 M0.48 5.79 C1.82 4, 2.39 3.87, 5.51 0.82 M0.06 6.77 C1.29 4.1, 3.49 1.91, 5.2 0.13 M2.38 9.8 C5.1 7.23, 6.29 4.42, 9.68 -0.7 M2.01 9.58 C3.81 7.37, 5.05 6.01, 10.57 -0.41 M6.53 9.08 C10.22 7.19, 12.64 4.85, 15.27 1.26 M6.76 10.53 C9.08 7.91, 11.25 4.38, 15.01 0.3 M12.55 10.05 C13.51 8.94, 14.75 7.7, 15.46 6.47 M12.7 9.62 C13.25 8.89, 13.82 8.12, 15.42 6.55" stroke="#fd7e14" stroke-width="0.5" fill="none"/><path d="M0.75 -0.79 C5.83 -1.23, 9.75 -0.98, 15.07 1.01 M0.2 -0.52 C3.76 -0.65, 7.96 -0.58, 14.78 -0.48 M14.98 0.1 C15.02 1.54, 14.47 4.13, 14.89 8.32 M14.63 0.14 C14.77 2.82, 15.4 5.1, 15.33 7.94 M16.39 9.02 C10.19 7.29, 5.41 7.71, 1.42 9.17 M15.38 8.56 C9.63 8.72, 5.24 7.63, 0.09 8.51 M0.54 8.09 C-0.36 6.02, 0.78 3.76, 0.66 -0.15 M-0.02 7.64 C-0.09 5.51, 0.13 1.87, 0.04 -0.28" stroke="#000000" stroke-width="1" fill="none"/></g><g stroke-linecap="round" transform="translate(131.5 171.5) rotate(0 7.5 4)"><path d="M0 0 C0 0, 0 0, 0 0 M0 0 C0 0, 0 0, 0 0 M0.45 5.62 C0.97 5.5, 3.07 3.6, 5.38 0.13 M-0.57 6.23 C1.44 4.15, 3.29 2.23, 5.02 0.05 M2.4 10.18 C2.82 8.23, 4.88 4.8, 9.42 -0.13 M2.03 9.36 C3.66 7.59, 6.35 4.49, 10.82 -0.5 M7.34 10.47 C9.98 7.99, 12.78 4.25, 15.24 -0.62 M6.7 10.59 C9.34 6.51, 12.01 3.75, 15.87 0.97 M12.65 9.95 C13.68 8.96, 14.17 7.95, 15.11 7 M12.64 9.61 C13.42 8.64, 14.44 7.7, 15.26 6.89" stroke="#fd7e14" stroke-width="0.5" fill="none"/><path d="M0.72 -1.08 C5.48 -0.76, 11.97 1.09, 14.22 0.46 M0.05 -0.59 C5.63 -0.42, 10 -0.38, 14.32 -0.48 M15.08 -0.13 C14.52 3.4, 14.88 5.58, 15.2 8.25 M14.74 0.22 C15.3 2.09, 15.26 4.31, 15.04 7.9 M14.85 7.29 C10.26 7.81, 7.52 9.27, 0.38 8.96 M14.51 8.74 C10.66 7.76, 6.4 8.62, 0.07 7.66 M-0.4 8.5 C0.69 6.21, 0.61 2.84, 0.48 -0.15 M-0.1 8.39 C0.12 4.68, 0.04 1.84, 0.05 -0.26" stroke="#000000" stroke-width="1" fill="none"/></g><g stroke-linecap="round" transform="translate(109.5 171.5) rotate(0 7.5 4)"><path d="M0 0 C0 0, 0 0, 0 0 M0 0 C0 0, 0 0, 0 0 M-0.41 7.12 C1.38 5.56, 2.43 3.52, 5.16 1.01 M-0.2 6.15 C2.07 3.81, 3.95 1.36, 4.67 0.45 M0.97 10.39 C3.71 6.12, 6.02 3.73, 10 -0.21 M1.5 10.04 C4.36 6.81, 6.91 4.06, 10.96 -0.31 M6.94 11.36 C8.59 8.9, 10.42 4.88, 15.9 -0.34 M6.55 9.72 C9.61 6.52, 13.54 3.66, 15.3 0.03 M13 9.74 C13.84 8.33, 14.48 7.72, 15.41 6.66 M12.59 9.57 C13.43 8.87, 13.9 8.48, 15.48 6.91" stroke="#fd7e14" stroke-width="0.5" fill="none"/><path d="M-0.48 -0.83 C3.78 1.12, 6.63 0.57, 15.61 0.41 M0.52 -0.52 C3.24 -0.36, 6.23 -0.36, 15.22 -0.02 M14.52 0.77 C14.89 2.83, 15.21 5.25, 14.79 7.26 M15.38 -0.1 C15.28 2.61, 14.99 5.25, 14.99 8.37 M14.72 7.71 C10.9 9.1, 4.35 8.89, -0.16 8.76 M15 7.65 C9.46 8.65, 3.82 7.81, 0.1 8.51 M0.74 8.72 C0.7 5.36, 0.52 2.87, 0.54 -0.04 M0.12 7.62 C0.06 6.05, 0.07 4.4, -0.1 0.03" stroke="#000000" stroke-width="1" fill="none"/></g><g stroke-linecap="round" transform="translate(40 10) rotate(0 29 90.5)"><path d="M0 0 C0 0, 0 0, 0 0 M0 0 C0 0, 0 0, 0 0 M0.26 6.86 C1.21 4.9, 2.05 4.56, 5.74 -0.25 M-0.04 6.17 C1.11 4.57, 2.11 3.41, 5 0.45 M-1.03 11.23 C2.23 7.87, 6.42 3.78, 10.15 -0.2 M0.06 11.58 C2.96 8.57, 5.61 5.95, 9.98 0.12 M-0.66 19.88 C4.44 10.94, 10.58 5.47, 16.82 -0.87 M-1.07 18.4 C6.23 12.84, 11.17 4.69, 16.39 0.13 M0.81 22.81 C6.26 16.97, 15.12 6.81, 20.03 -0.95 M0.57 23.23 C4.92 19.38, 10.98 13.83, 21.17 -0.69 M-1.04 28.48 C5.16 23.59, 13.22 15.67, 24.79 -1.56 M0.79 31.15 C5.91 23.52, 12.7 14.1, 26.2 0.19 M-0.89 36.6 C8.1 26.15, 14.62 17.73, 30.49 1.28 M-0.62 35.99 C7.88 28.02, 17.03 17.44, 32.52 -0.75 M-1.34 42.45 C9.68 31.93, 21 16.75, 36.17 -1 M0.26 42.83 C9.45 31.59, 20.44 20.85, 36.14 0.32 M-0.12 47.49 C9.7 38.41, 17.9 25.27, 42.51 -1.31 M0.7 49.59 C11.61 36.25, 21.12 24.79, 43.36 -1.09 M-0.84 56.39 C10.02 42.41, 22.21 29.17, 49.27 1.54 M0.02 54.14 C9.59 42.36, 19.67 31.77, 46.72 -0.45 M0.44 59.36 C15.89 43.74, 29.54 24.31, 53.18 -0.96 M-0.46 61.62 C10.66 48.27, 21.33 36.12, 52.41 0.16 M0.51 69.2 C19.61 44.06, 40.84 19.09, 57.42 -0.64 M-0.67 67.55 C17.34 45.84, 35.42 26.57, 58.18 -0.61 M1.71 71.85 C13.65 59.66, 27.4 44.83, 59.62 6.42 M-0.64 73.4 C15.09 56.54, 28.11 39.99, 58.81 5.7 M-1.32 79.03 C20.55 53.18, 42.61 30.49, 56.38 12.34 M-0.27 79.24 C17.94 60.56, 33.95 40.71, 59.07 12.9 M1.6 83.16 C23.84 59.93, 47.19 31.8, 58.16 20.14 M0.37 85.76 C21.56 60.06, 42.36 36.53, 58.14 18.86 M-0.35 89.84 C14.1 77.58, 26.77 63.05, 57.89 24.74 M0.01 90.66 C17.97 70.42, 35.04 50.83, 58.65 23.5 M0.31 96.76 C17.82 77.06, 36.03 55.27, 58.37 29.28 M-0.12 98.73 C18.17 76.66, 35.48 57.75, 57.54 31.22 M0.03 102.36 C22.2 81.53, 40.95 56.66, 59.53 36.19 M-0.08 104.44 C19.55 82.58, 37.1 61.05, 57.83 36.91 M0.99 108.38 C16.69 92.02, 33.54 72.13, 57.19 43.73 M-0.05 109.58 C12.68 93.62, 26.36 77.69, 58.82 42.61 M0.38 116.87 C16.3 99.06, 30.03 77.16, 59.77 48.59 M0.45 116.25 C22.21 89.33, 45.93 64.54, 57.24 49.07 M-0.2 120.57 C10.83 108.71, 22.81 95.98, 57.54 54.91 M0.43 122.33 C15.8 103.22, 34.1 82.38, 58.06 54.84 M-1.41 127.91 C17.15 109.44, 37.94 87.2, 60.11 60.64 M0.21 128.47 C14.25 112.2, 27.75 96.72, 58.32 61.66 M-1.49 133.62 C20.31 111.37, 38.13 87.66, 57.65 66.53 M0.59 133.73 C14.68 116.12, 28.84 100.87, 57.94 67.48 M-1.52 139.29 C15.4 120.44, 28.76 104.28, 57.67 74.78 M-0.95 140.2 C20.1 116.82, 40.33 92.82, 58.9 74.11 M1.86 144.39 C19.25 125.43, 38.12 104.64, 59.68 81.56 M-0.52 145.01 C15.74 129.5, 30.33 113.21, 57.39 79.79 M-0.12 150.63 C15.55 133.85, 31.91 113.08, 58.54 84.04 M-0.9 152.79 C22.33 126.66, 43.28 102, 57.61 85.31 M-1.08 157 C20.45 134.42, 41.21 112.02, 59.81 92.76 M0.23 159.64 C14.35 141.8, 29.54 123.81, 58.63 92.31 M-0.77 164.32 C11.49 150.01, 23.99 137.9, 59.11 98.68 M0.43 163.83 C16.55 144.23, 35.53 124.73, 58.17 97.41 M-0.34 169.85 C12.72 154.86, 26.81 139.06, 56.81 101.69 M-0.27 171.31 C21.9 145.21, 45.36 117.69, 58.79 102.79 M-1.06 176.28 C15.48 158.18, 27.33 145.22, 58.73 109.26 M-0.64 176.88 C15.34 159.49, 28.87 144.09, 57.05 109.78 M1.75 181.37 C19.81 159.95, 39.26 140.19, 57.45 117.42 M0.31 182.71 C13.39 166.04, 27.88 151.18, 58.28 115.96 M7.31 183.17 C23.28 161.7, 39.71 146.89, 57.73 121.13 M5.39 181.7 C23.37 162.87, 39.88 141.38, 58.5 122.52 M10.98 183.96 C28.07 161.12, 47.31 140.73, 57.8 127.32 M11.27 182.43 C26.16 165.36, 41.22 147.88, 57.12 129.31 M15.37 183.47 C28.04 169.76, 39.2 157.31, 58.07 133.42 M17.07 182.34 C31.92 163.7, 46.14 148.61, 58.19 134.47 M23.11 182.45 C34.82 168.29, 46.41 153.37, 59.87 140 M21.63 182.45 C36.17 165.92, 48.9 150.07, 58.55 141.03 M26.86 183 C33.71 171.27, 43.24 163.82, 56.69 145.77 M26.93 181.61 C38.6 171.32, 47.32 159.98, 57.58 146.96 M30.69 182.87 C40.08 175.2, 46.27 166.65, 57.67 151.9 M32.01 181.91 C41.96 170.92, 51.76 160.34, 58.12 153.57 M40.06 179.78 C44.01 173.88, 53.99 164.64, 58.83 157.12 M38.36 181 C45.83 174.09, 51.74 166.76, 58.22 159.56 M43.24 181.77 C48.46 176.75, 47.82 176.02, 57.84 166.23 M43.82 181.43 C47.73 178.05, 50.13 173.32, 57.3 165.61 M49.12 182.87 C51.96 179.71, 54.4 175.22, 58.48 172.19 M48.26 181.18 C51.21 178.64, 54.49 175.54, 57.59 170.33 M53.63 181.35 C55.33 180.39, 56.11 178.49, 57.92 176.33 M53.97 182.01 C55.54 180.49, 56.92 178.55, 58.22 176.37" stroke="#868e96" stroke-width="0.5" fill="none"/><path d="M0.09 1.35 C12.17 0.94, 27.24 0.87, 56.6 0.12 M-0.29 -0.64 C11.94 -0.24, 25.98 0.37, 58.13 0.09 M57.71 0.81 C57.42 51.89, 56.38 100.72, 58.69 179.7 M58.83 -0.15 C59.81 63.92, 59.67 129.25, 58.68 180.9 M59.89 182.56 C43.84 182.17, 28.46 181.9, 1.5 179.7 M58.11 181.67 C35.01 180.28, 11.96 181.4, 0.11 180.5 M1.65 180.62 C-0.48 115.08, -0.32 49.78, -1.81 -0.5 M0.09 180.31 C-0.41 108.63, -0.78 37.62, -0.28 0.12" stroke="#000000" stroke-width="1" fill="none"/></g><g stroke-linecap="round" transform="translate(48 19) rotate(0 7.5 4)"><path d="M0 0 C0 0, 0 0, 0 0 M0 0 C0 0, 0 0, 0 0 M0.14 6.17 C1.92 4.67, 4.54 1.05, 4.65 0.49 M-0.23 6.09 C0.63 5.08, 2.2 3.66, 5.11 0.01 M0.9 9.68 C4.51 6.24, 7.71 2.88, 9.8 -1.23 M2.29 9.31 C5.34 6.21, 7.38 3.28, 10.8 -0.11 M6.71 9.19 C10.76 5.54, 14.62 1.56, 16.52 -0.75 M7.34 10.78 C8.87 7.53, 11.7 5.4, 15.95 0.77 M12.49 10.02 C13.56 8.8, 14.04 7.78, 15.1 6.44 M12.64 9.91 C13.41 9.31, 13.82 8.36, 15.21 6.61" stroke="#fa5252" stroke-width="0.5" fill="none"/><path d="M-0.78 0.46 C4.28 0.31, 6.28 -0.01, 13.82 1.05 M-0.68 -0.48 C3.67 0.07, 7 0.17, 14.87 -0.45 M15.2 0.25 C14.78 2.44, 15.26 5.83, 15.44 8.75 M15.04 -0.1 C15.05 2.57, 15.34 4.35, 14.81 7.92 M15.38 8.96 C10.63 8.87, 7.7 7.14, 1.47 8.01 M15.07 7.66 C11.31 8.61, 7.5 7.73, 0.47 8.7 M0.48 7.85 C0.48 4.84, -0.79 1.56, 0.77 0.23 M0.05 7.74 C-0.11 6.39, -0.12 4.76, 0.06 -0.24" stroke="#000000" stroke-width="1" fill="none"/></g><g stroke-linecap="round" transform="translate(73.5 19) rotate(0 7.5 4)"><path d="M0 0 C0 0, 0 0, 0 0 M0 0 C0 0, 0 0, 0 0 M-0.09 7.05 C2.34 3.64, 3.13 2.22, 4.48 0.79 M-0.58 6.48 C1.01 5.07, 2.4 3.16, 5.18 0.07 M1.47 9.6 C3.93 7.21, 5.61 3.7, 11.15 -0.15 M2.43 9.5 C3.61 7.59, 6.37 5.01, 11.24 -0.21 M7.37 9.47 C11.07 5.77, 14.36 1.83, 14.77 -0.89 M6.77 9.84 C10.08 7.02, 12.44 4.68, 15.61 0.5 M12.78 9.68 C13.12 8.84, 13.73 8.02, 15.01 6.85 M12.86 9.93 C13.29 8.95, 13.73 8.31, 15.41 6.62" stroke="#fa5252" stroke-width="0.5" fill="none"/><path d="M0.61 0.41 C4.47 0.04, 9.85 1, 13.95 -0.43 M0.22 -0.02 C3.64 0.17, 6.96 -0.35, 15.73 -0.11 M14.79 -0.74 C15.3 2.21, 15.46 6.2, 14.8 8.66 M14.99 0.37 C15.28 2.24, 14.82 4.48, 14.92 8.38 M14.84 8.76 C10.46 7.12, 5.13 8.11, -0.71 8.17 M15.1 8.51 C9.57 7.56, 4.44 8.63, 0.67 8.62 M0.54 7.96 C-0.77 5.55, 0.72 3.73, -0.76 0.07 M-0.1 8.03 C-0.12 6.2, 0.05 4.06, -0.24 -0.13" stroke="#000000" stroke-width="1" fill="none"/></g><g stroke-linecap="round" transform="translate(49.71875 75.8125) rotate(0 7.5 4)"><path d="M0 0 C0 0, 0 0, 0 0 M0 0 C0 0, 0 0, 0 0 M0.49 5.79 C0.81 4.85, 2.07 3.51, 4.53 0.42 M-0.25 6.49 C1.08 4.69, 2.32 3.4, 4.78 -0.01 M1.71 9.64 C3.81 5.72, 7.66 3.93, 9.88 0.35 M1.57 9.9 C4.16 7.5, 6.55 5.17, 11.1 -0.22 M7.87 9.36 C9.91 6.87, 10.1 4.5, 15.57 0.83 M7.59 10.01 C10.88 6.7, 13.95 2.51, 15.2 -0.07 M12.48 9.57 C13.44 8.35, 14.31 7.64, 15.02 6.54 M12.71 9.62 C13.57 8.45, 14.77 7.31, 15.16 6.62" stroke="#fa5252" stroke-width="0.5" fill="none"/><path d="M-1.05 0.09 C3.78 1.01, 8.88 -0.47, 14.04 -1.36 M0.1 0.07 C3.41 -0.44, 7.8 -0.1, 15.3 0.19 M15.28 -0.52 C15.41 3.4, 14.78 5.95, 14.88 8.08 M15.27 -0.04 C14.81 2.13, 14.92 4.78, 15.31 8.1 M16.13 7.03 C11.01 8.08, 3.37 8.25, 1.01 8.15 M15.08 7.63 C11.64 8.8, 8.03 8.72, -0.14 8.45 M-0.73 7.8 C0.72 5.98, -0.81 3.56, -0.55 0.09 M-0.11 8.05 C0.08 5.87, -0.22 4.09, 0.09 0.03" stroke="#000000" stroke-width="1" fill="none"/></g><g stroke-linecap="round" transform="translate(75.21875 75.8125) rotate(0 7.5 4)"><path d="M0 0 C0 0, 0 0, 0 0 M0 0 C0 0, 0 0, 0 0 M-0.6 6.53 C1.18 4.57, 3.23 1.89, 4.38 -0.28 M-0.14 6.05 C1.61 4.15, 2.91 2.13, 4.96 0.17 M1.27 8.58 C5.09 6.86, 6.27 4.55, 9.69 0.63 M2.27 9.7 C4.99 7.07, 7.03 4.53, 10.16 0.11 M7.99 9.06 C8.31 6.53, 11.23 5.81, 16.91 -0.31 M7.42 10.58 C9.17 7.84, 10.93 4.78, 16.06 0.41 M12.47 9.46 C13.15 9.02, 13.91 7.85, 15.68 6.98 M12.59 9.63 C13.83 8.46, 14.61 7.27, 15.36 6.83" stroke="#fa5252" stroke-width="0.5" fill="none"/><path d="M-1.18 1.05 C3.86 -0.44, 8.86 -1.36, 14.04 0.43 M-0.13 -0.45 C5.18 -0.12, 9.21 0.17, 15.23 -0.2 M15.44 0.75 C14.82 2.32, 14.9 3.41, 14.8 7.97 M14.81 -0.08 C14.98 3.52, 15.37 6.38, 15.26 7.96 M16.47 8.01 C9.04 8.07, 5.5 8.05, -0.68 8.2 M15.47 8.7 C10.16 8.55, 3.83 8.37, -0.14 8.51 M0.77 8.23 C-0.68 5.71, -0.48 3.38, -0.51 -0.21 M0.06 7.76 C-0.21 5.4, 0.11 3.09, 0.2 -0.16" stroke="#000000" stroke-width="1" fill="none"/></g><g stroke-linecap="round" transform="translate(50.0625 94.75) rotate(0 7.5 4)"><path d="M0 0 C0 0, 0 0, 0 0 M0 0 C0 0, 0 0, 0 0 M-0.77 6.83 C0.48 5.1, 1.5 3.04, 5.16 0.38 M-0.07 6.11 C1.21 4.12, 3.08 2.35, 4.93 0.24 M2.62 9.66 C3.89 7.4, 6.17 4.84, 10.07 -1.09 M2.71 9.6 C5.27 6.46, 7.06 3.66, 10.3 0.36 M6.24 8.92 C9.02 8.36, 12.41 4.86, 15.02 1.34 M7.08 10.31 C9.01 6.93, 12.27 4.66, 15.52 -0.07 M12.38 9.86 C13.08 8.8, 14.42 8.47, 15.74 6.69 M12.79 9.64 C13.18 8.94, 14.01 8.43, 15.26 6.58" stroke="#fa5252" stroke-width="0.5" fill="none"/><path d="M-1.05 -0.43 C3.63 -1.46, 8.22 0.33, 14.95 0.19 M0.73 -0.11 C4.94 0.28, 9.51 -0.11, 14.31 0.26 M14.8 0.66 C14.92 1.96, 14.85 3.74, 15.74 8.54 M14.92 0.38 C15.27 2.42, 15.22 4.59, 15.2 8.3 M14.29 8.17 C12.49 8.15, 7.27 8.2, 1.02 8.17 M15.67 8.62 C11.1 8.59, 7.35 8.65, -0.04 7.32 M-0.76 8.07 C-0.63 5.89, -0.59 3.39, 0.07 -0.22 M-0.24 7.87 C0.08 5.53, 0.19 2.85, -0.22 0.27" stroke="#000000" stroke-width="1" fill="none"/></g><g stroke-linecap="round" transform="translate(75.5625 94.75) rotate(0 7.5 4)"><path d="M0 0 C0 0, 0 0, 0 0 M0 0 C0 0, 0 0, 0 0 M-0.72 6.46 C0.83 3.82, 3.27 2.56, 5.17 0.61 M-0.47 6.03 C0.8 4.96, 1.89 3.75, 4.95 0.1 M1.35 10.16 C2.9 8.41, 5.05 4.64, 10.88 0.3 M2.57 9.59 C4 7.11, 6.6 4.52, 10.24 0.42 M7.04 10.64 C10.3 7.45, 10.26 6.96, 15.36 0.99 M6.67 9.74 C10.68 6.59, 13.28 2.49, 15.33 -0.09 M12.39 9.56 C13.69 9.3, 14.34 8.31, 15.11 6.44 M12.53 9.64 C13.37 9.13, 13.9 8.14, 15.17 6.65" stroke="#fa5252" stroke-width="0.5" fill="none"/><path d="M-0.96 -1.36 C4.59 0.47, 11.05 0.23, 15.14 -0.25 M0.3 0.19 C3.83 -0.18, 6.51 0.28, 14.51 0.41 M14.88 0.08 C14.78 3.13, 15.72 6.85, 14.92 7.62 M15.31 0.1 C15.24 2.21, 15.19 4.8, 14.74 8.39 M16.01 8.15 C9.81 8.22, 7 8.19, -0.74 8.93 M14.86 8.45 C8.97 8.63, 3.18 7.44, -0.19 8.72 M-0.55 8.09 C-0.44 5.16, 0.14 2.51, 0.09 0.11 M0.09 8.03 C0.25 5.92, -0.18 4.44, 0.14 -0.11" stroke="#000000" stroke-width="1" fill="none"/></g><g stroke-linecap="round" transform="translate(49.03125 113.6875) rotate(0 7.5 4)"><path d="M0 0 C0 0, 0 0, 0 0 M0 0 C0 0, 0 0, 0 0 M-0.87 5.76 C1.8 4.27, 3.67 2.37, 4.29 0.74 M-0.29 6.2 C0.91 4.96, 2.11 3.45, 4.62 0.52 M1.16 10.44 C4.08 5.84, 7.38 4.37, 10.49 1.19 M1.63 9.92 C4.03 7.51, 6.31 4.89, 10.09 -0.46 M8.38 9.5 C8.25 9.09, 10.35 6.73, 16.51 0.31 M7.53 10.22 C9.84 6.58, 12.44 3.36, 15.16 -0.24 M13.06 10 C14 8.72, 14.24 7.47, 15.13 6.84 M12.74 9.85 C13.32 8.86, 13.88 8.18, 15.49 6.56" stroke="#fa5252" stroke-width="0.5" fill="none"/><path d="M-0.96 0.43 C4.02 0.33, 8.27 -0.11, 14.1 1.45 M0.23 -0.2 C3.59 0.22, 8.08 0.37, 15.71 -0.19 M14.8 -0.03 C15.73 3.6, 14.91 5.74, 14.85 7.85 M15.26 -0.04 C15.26 3.46, 14.8 6.7, 15 7.81 M14.32 8.2 C11.34 8.18, 4.91 8.95, 1.39 9.35 M14.86 8.51 C9.22 7.41, 3.33 8.81, 0.22 7.29 M-0.51 7.79 C0.12 5.3, 0.15 3.17, -0.48 -0.47 M0.2 7.84 C-0.24 6.14, 0.12 3.61, 0.31 0.22" stroke="#000000" stroke-width="1" fill="none"/></g><g stroke-linecap="round" transform="translate(74.53125 113.6875) rotate(0 7.5 4)"><path d="M0 0 C0 0, 0 0, 0 0 M0 0 C0 0, 0 0, 0 0 M-0.09 6.41 C1.58 4.83, 2.32 3.1, 4.4 -0.05 M-0.32 6.28 C0.79 4.92, 1.55 4.08, 4.95 0.13 M1.54 8.72 C5.24 6.83, 7.65 4.49, 10.29 0.9 M1.77 10.17 C4.1 7.55, 6.26 4.02, 10.02 -0.06 M6.49 11.15 C9.63 7.52, 13.66 3.51, 15.97 -0.5 M6.99 9.74 C8.77 7.36, 10.64 4.87, 15.82 -0.23 M13.11 9.71 C13.12 8.67, 13.81 8.31, 15.15 6.32 M12.64 9.6 C13.2 8.9, 14.17 8.06, 15.51 6.86" stroke="#fa5252" stroke-width="0.5" fill="none"/><path d="M-0.05 0.19 C3.29 -0.29, 5.39 1.41, 14.78 0.61 M-0.69 0.26 C4.39 0.45, 10.46 -0.15, 15.62 -0.12 M15.74 0.54 C14.9 2.1, 14.83 4.81, 15.76 8.62 M15.2 0.3 C14.79 3, 15.05 5.02, 15.05 8.27 M16.02 8.17 C9.61 8.95, 7.1 9.37, 1.24 7.72 M14.96 7.32 C9.42 8.82, 4.42 7.39, 0.07 7.48 M0.07 7.78 C0.15 5.62, -0.43 2.54, -0.26 0.17 M-0.22 8.27 C0.1 5.43, 0.27 3.31, -0.28 -0.38" stroke="#000000" stroke-width="1" fill="none"/></g><g stroke-linecap="round" transform="translate(48.6875 56.875) rotate(0 7.5 4)"><path d="M0 0 C0 0, 0 0, 0 0 M0 0 C0 0, 0 0, 0 0 M-0.08 6.65 C0.18 5.45, 1.45 3.33, 4.24 0.3 M-0.3 6.14 C0.7 5.05, 2.35 3.14, 5.11 0.07 M2.36 10.11 C4.99 7.63, 7.79 3.89, 10.25 -0.98 M1.71 10.23 C4.36 6.15, 7.03 3.39, 10.88 0.61 M6.83 10.81 C10.16 7.59, 11.77 4.32, 14.82 1.22 M6.8 9.72 C9.32 6.55, 12.64 3.49, 15.32 0.86 M12.48 9.46 C13.43 8.76, 14.4 7.15, 15.15 6.74 M12.55 9.67 C13.8 8.53, 14.75 7.77, 15.2 6.87" stroke="#fa5252" stroke-width="0.5" fill="none"/><path d="M0.14 -0.25 C4.03 1.43, 9.65 0.59, 15.38 0.46 M-0.49 0.41 C4.81 -0.24, 8.82 -0.17, 15.08 -0.18 M14.92 -0.38 C14.92 2.22, 15.83 5.37, 15.2 8.51 M14.74 0.39 C15.04 2.13, 15.09 4.9, 15.04 7.82 M14.26 8.93 C11.69 9.37, 6.84 7.73, 0.9 7.73 M14.81 8.72 C9.7 7.16, 4.03 7.35, 0.09 7.52 M0.09 8.11 C-0.49 5.33, -0.27 3.79, 0.06 0.41 M0.14 7.89 C0.35 6.14, -0.23 3.47, -0.12 0.27" stroke="#000000" stroke-width="1" fill="none"/></g><g stroke-linecap="round" transform="translate(74.1875 56.875) rotate(0 7.5 4)"><path d="M0 0 C0 0, 0 0, 0 0 M0 0 C0 0, 0 0, 0 0 M-0.96 6.77 C0.73 4.15, 2.15 2.68, 4.6 0.25 M-0.63 6.56 C1.13 4.57, 2.7 2.88, 5.19 0.19 M1.96 11 C3.6 8.54, 5.44 4.52, 10.91 -0.7 M1.56 9.36 C4.62 6.16, 8.55 3.3, 10.31 -0.33 M7.98 10.12 C10.68 5.56, 12.76 3.57, 15.79 0.13 M6.63 9.57 C9.36 7.3, 10.9 6.04, 16.03 0.94 M12.5 9.86 C13.31 8.48, 14.07 8.02, 15.56 6.54 M12.87 9.57 C13.51 9.2, 13.79 8.53, 15.18 6.58" stroke="#fa5252" stroke-width="0.5" fill="none"/><path d="M-0.9 1.45 C4.48 0.63, 9.76 0.48, 14.6 -1.38 M0.71 -0.19 C5.64 -0.2, 10.11 -0.27, 14.98 0.7 M14.85 -0.15 C15.75 3.57, 15.2 6.4, 14.92 8.4 M15 -0.19 C14.99 3.27, 14.99 5.82, 15.05 8.27 M16.39 9.35 C11.57 7.81, 6.56 7.82, 1.02 7.92 M15.22 7.29 C11.93 7.63, 8.81 7.67, -0.19 8.06 M-0.48 7.53 C-0.27 6, 0.05 4.06, -0.32 -0.45 M0.31 8.22 C-0.3 4.68, -0.15 2.38, -0.11 0.37" stroke="#000000" stroke-width="1" fill="none"/></g><g stroke-linecap="round" transform="translate(48.34375 37.9375) rotate(0 7.5 4)"><path d="M0 0 C0 0, 0 0, 0 0 M0 0 C0 0, 0 0, 0 0 M-0.84 5.99 C0.79 4.31, 2.88 2.27, 4.75 0.28 M-0.3 6.17 C1.15 4.66, 2.48 3.35, 4.66 0.44 M1.76 10.71 C4.51 5.56, 7.95 2.64, 11.41 -0.81 M1.49 9.75 C5.59 6.85, 8.17 2.28, 11.14 -0.16 M7.44 9.31 C9.23 7.58, 13.19 3.05, 14.82 -0.25 M7.29 9.59 C8.87 8.43, 11.59 6.2, 15.56 -0.08 M12.52 9.34 C13.14 9.06, 14.16 8.17, 15.06 6.35 M12.89 9.88 C13.24 9.12, 13.91 8.03, 15.35 6.7" stroke="#fa5252" stroke-width="0.5" fill="none"/><path d="M-0.22 0.61 C4.63 0.31, 8.1 -1.53, 15.52 -0.97 M0.62 -0.12 C5.39 -0.15, 10.61 0.73, 15.51 -0.08 M15.76 0.62 C15.19 2.54, 14.9 4.45, 15.6 7.48 M15.05 0.27 C15.04 3, 15.05 6.64, 15.05 7.8 M16.24 7.72 C10.46 7.86, 5.15 8.05, -1.36 7.62 M15.07 7.48 C9.14 7.38, 2.92 7.92, -0.21 8.09 M-0.26 8.17 C0.1 5.9, -0.27 2.53, 0.55 0.28 M-0.28 7.62 C-0.18 6.1, -0.17 4.03, -0.31 0.35" stroke="#000000" stroke-width="1" fill="none"/></g><g stroke-linecap="round" transform="translate(73.84375 37.9375) rotate(0 7.5 4)"><path d="M0 0 C0 0, 0 0, 0 0 M0 0 C0 0, 0 0, 0 0 M-1 6.34 C1.22 4.22, 3.19 2.15, 4.48 -0.38 M-0.14 6.11 C1.73 4.2, 2.99 2.4, 5.09 0.32 M1.73 8.83 C5.77 5.18, 9.63 1.2, 11.53 -1.11 M2.35 10.42 C3.88 7.17, 6.71 5.04, 10.96 0.41 M6.29 11.03 C9.78 7.07, 11.36 3.76, 14.78 -0.59 M6.79 10.67 C9.29 8.74, 10.63 5.63, 15.15 -0.05 M12.53 9.76 C13.82 8.59, 14.18 7.41, 15.21 6.99 M12.57 9.89 C13.1 8.93, 13.83 8.4, 15.25 6.67" stroke="#fa5252" stroke-width="0.5" fill="none"/><path d="M0.38 0.46 C5.55 -1.44, 12.42 -1.03, 15.82 1.41 M0.08 -0.18 C4.1 0.72, 8.75 -0.05, 14.65 -0.14 M15.2 0.51 C14.99 2.65, 15.68 3.97, 15.78 8 M15.04 -0.18 C15.06 2.29, 15.05 3.85, 15.25 8.37 M15.9 7.73 C10.17 7.89, 1.94 7.6, 1.44 8.43 M15.09 7.52 C11.72 7.96, 8.62 7.99, 0.1 7.55 M0.06 8.41 C-0.29 5.62, 0.57 4.43, -0.23 0.62 M-0.12 8.27 C-0.05 5.53, -0.25 2.68, -0.39 -0.07" stroke="#000000" stroke-width="1" fill="none"/></g><g stroke-linecap="round" transform="translate(50.40625 170.5) rotate(0 7.5 4)"><path d="M0 0 C0 0, 0 0, 0 0 M0 0 C0 0, 0 0, 0 0 M-0.65 6.29 C0.86 4.82, 1.9 2.66, 5.31 0.29 M-0.06 6.23 C0.67 5.05, 2.37 3.46, 5.36 0.25 M2.38 9.11 C6.08 5.41, 9.38 1.47, 9.79 -1.25 M1.78 9.48 C5.09 6.66, 7.45 4.32, 10.62 0.14 M7.26 9.94 C8.36 7.19, 10.34 4.53, 14.48 0.72 M7.5 10.76 C8.91 7.55, 10.34 5.47, 15.8 -0.01 M12.94 9.56 C12.98 8.77, 13.65 8.8, 15.02 7.04 M12.55 9.59 C13.71 8.59, 14.58 7.45, 15.5 6.66" stroke="#fa5252" stroke-width="0.5" fill="none"/><path d="M-0.4 -1.38 C5.62 -1.02, 11.03 1.37, 14.62 1.24 M-0.02 0.7 C4.78 -0.04, 8.19 -0.11, 14.86 0.71 M14.92 0.4 C15.62 2.5, 15.81 6.05, 14.62 8.09 M15.05 0.27 C15.05 2.74, 15.26 6.25, 15.36 8.33 M16.02 7.92 C9.42 7.6, 8.01 8.4, -1.42 8.13 M14.81 8.06 C11.33 7.99, 8.18 7.45, -0.44 7.75 M-0.32 7.55 C0.54 5.71, -0.24 3.47, 0.44 -0.55 M-0.11 8.37 C-0.28 6.71, -0.37 4.63, 0.36 0.26" stroke="#000000" stroke-width="1" fill="none"/></g><g stroke-linecap="round" transform="translate(75.90625 170.5) rotate(0 7.5 4)"><path d="M0 0 C0 0, 0 0, 0 0 M0 0 C0 0, 0 0, 0 0 M-0.5 6.32 C0.79 3.9, 3.16 2.8, 4.53 0.6 M-0.59 6.48 C1.01 5, 2.48 3.56, 5.27 0.24 M2.88 9 C4.92 6.51, 5.12 4.14, 10.58 0.47 M2.61 9.65 C5.89 6.34, 8.96 2.15, 10.22 -0.43 M6.29 9.56 C9.39 5.62, 12.23 3.31, 14.51 -0.28 M7.03 9.73 C9.82 5.94, 13.72 2.23, 14.97 -0.01 M12.44 9.37 C13.37 9.11, 13.98 8.23, 15.63 6.41 M12.72 9.72 C13.64 8.57, 14.87 7.43, 15.33 6.75" stroke="#fa5252" stroke-width="0.5" fill="none"/><path d="M0.52 -0.97 C5.78 1.55, 9.54 1.38, 14.77 0.15 M0.51 -0.08 C3.78 -0.28, 8.12 0.57, 15.58 0.19 M15.6 -0.52 C15.78 2.92, 14.62 5.92, 15.54 8.08 M15.05 -0.2 C15.26 2.41, 15.37 4.41, 14.92 8.24 M13.64 7.62 C12.22 8.42, 5.13 8.12, -1.04 8.17 M14.79 8.09 C11.56 7.56, 7.47 7.77, 0.16 8.05 M0.55 8.28 C-0.2 5.81, 0.47 1.83, -0.75 -0.24 M-0.31 8.35 C-0.37 4.98, 0.38 2.36, 0.23 0.2" stroke="#000000" stroke-width="1" fill="none"/></g><g stroke-linecap="round" transform="translate(49.375 132.625) rotate(0 7.5 4)"><path d="M0 0 C0 0, 0 0, 0 0 M0 0 C0 0, 0 0, 0 0 M-0.77 5.66 C1.58 4.6, 2.3 3.18, 4.41 0.77 M-0.16 6.35 C1.51 4.73, 2.77 3.17, 4.7 0.45 M3.01 8.7 C3.32 6.17, 6.24 5.45, 11.93 -0.67 M2.44 10.22 C4.18 7.48, 5.94 4.42, 11.08 0.05 M6.25 9.23 C8.45 7.77, 10.91 3.98, 16.68 1.16 M6.63 9.76 C10.65 5.97, 13.19 2.1, 15.65 0.66 M12.58 10.01 C13.08 9.31, 14.36 7.92, 15.66 6.37 M12.63 9.69 C13.47 9, 13.89 8.41, 15.22 6.6" stroke="#fa5252" stroke-width="0.5" fill="none"/><path d="M0.82 1.41 C2.74 1.34, 6.01 0.25, 14.63 -0.05 M-0.35 -0.14 C5.75 0.72, 12.37 0.21, 15.48 -0.08 M15.78 0 C14.68 2.9, 15.6 5.69, 14.64 8.11 M15.25 0.37 C15.37 3.27, 14.93 6.12, 14.93 8.27 M16.44 8.43 C9.17 8.09, 5.13 8.13, -0.96 7.61 M15.1 7.55 C9.93 7.77, 5.91 8.07, 0.38 7.7 M-0.23 8.62 C0.38 5.5, -0.81 3.86, 0.55 -0.21 M-0.39 7.93 C0.42 5.12, 0.29 1.92, -0.11 0.09" stroke="#000000" stroke-width="1" fill="none"/></g><g stroke-linecap="round" transform="translate(74.875 132.625) rotate(0 7.5 4)"><path d="M0 0 C0 0, 0 0, 0 0 M0 0 C0 0, 0 0, 0 0 M0.06 6.33 C0.84 4.93, 2.24 3.36, 4.64 -0.29 M0.12 6.29 C1.69 4.36, 2.79 2.63, 4.78 0.6 M1.26 8.56 C4.03 8, 7.42 4.5, 10.03 0.98 M2.09 9.95 C4.03 6.57, 7.28 4.3, 10.53 -0.43 M5.95 10.53 C8.23 7.08, 12.58 6, 16.85 0.21 M7.28 9.8 C8.54 7.52, 11.24 5.86, 15.32 -0.15 M12.39 10.06 C13.56 8.78, 14.13 8.12, 15.06 6.7 M12.87 9.68 C13.48 8.9, 14.14 7.88, 15.3 6.58" stroke="#fa5252" stroke-width="0.5" fill="none"/><path d="M-0.38 1.24 C3.3 0.01, 6.69 -0.19, 16.39 1.02 M-0.14 0.71 C4.93 0.22, 9.18 -0.05, 15.38 0.56 M14.62 0.09 C15.62 1.96, 14.72 3.87, 15.54 8.09 M15.36 0.33 C14.97 2.24, 14.98 4.28, 14.98 7.64 M13.58 8.13 C9.84 8.22, 5.79 7.66, 0.13 7.58 M14.56 7.75 C10.49 7.96, 6.02 7.61, -0.42 8.51 M0.44 7.45 C-0.73 5.08, 0.57 2.42, 0.74 -0.61 M0.36 8.26 C0.31 5.09, -0.04 1.87, 0.33 0.38" stroke="#000000" stroke-width="1" fill="none"/></g><g stroke-linecap="round" transform="translate(50.75 151.5625) rotate(0 7.5 4)"><path d="M0 0 C0 0, 0 0, 0 0 M0 0 C0 0, 0 0, 0 0 M-0.72 6.63 C0.23 5.56, 1.55 3.24, 5.14 0.57 M0.03 6.28 C0.91 4.75, 2.51 3.16, 4.75 0.64 M2.05 10.28 C5.31 7.09, 5.27 6.6, 10.37 0.63 M1.69 9.38 C5.69 6.23, 8.29 2.13, 10.34 -0.45 M5.99 9.53 C10.19 8.69, 12.33 5.49, 14.81 -0.6 M6.44 9.8 C9.16 8.14, 10.9 4.95, 15.02 0.08 M13 9.43 C14.02 8.25, 14.39 7.48, 15.32 6.52 M12.7 9.77 C13.29 8.81, 14.09 7.96, 15.49 6.65" stroke="#fa5252" stroke-width="0.5" fill="none"/><path d="M-0.23 0.15 C5.55 -0.17, 13.22 0.89, 14.85 -0.71 M0.58 0.19 C4.7 -0.22, 8.81 0.42, 14.51 0.74 M15.54 0.08 C14.6 2.51, 15.5 4.9, 14.6 8.5 M14.92 0.24 C15 3.41, 15.05 5.92, 14.9 8.39 M13.96 8.17 C9.11 7.63, 5.26 7.59, 0.18 8.21 M15.16 8.05 C11.79 7.65, 7.4 8.47, 0.27 7.78 M-0.75 7.76 C0.51 4.77, 0.7 1.36, 0.71 -0.78 M0.23 8.2 C-0.19 5.83, 0.25 3.86, -0.3 -0.17" stroke="#000000" stroke-width="1" fill="none"/></g><g stroke-linecap="round" transform="translate(76.25 151.5625) rotate(0 7.5 4)"><path d="M0 0 C0 0, 0 0, 0 0 M0 0 C0 0, 0 0, 0 0 M-0.84 6.81 C0.96 3.97, 2.99 3.07, 4.9 1.11 M-0.55 6.48 C0.93 5, 2.33 3.39, 4.66 0.1 M3.4 9.14 C3.26 8.73, 5.37 6.37, 11.52 -0.05 M2.55 9.86 C4.86 6.22, 7.46 2.99, 10.17 -0.6 M8.15 10.97 C11.23 6.82, 12 2.76, 14.87 0.7 M7.12 10.47 C9 7.28, 10.81 5.07, 16.06 -0.22 M13.03 9.39 C13.41 8.6, 14.66 7.27, 15.25 7.01 M12.6 9.62 C13.38 8.79, 14.28 8.04, 15.17 6.67" stroke="#fa5252" stroke-width="0.5" fill="none"/><path d="M-0.37 -0.05 C7.13 1, 11.33 -0.72, 14.72 -0.29 M0.48 -0.08 C6.3 0.53, 11.35 0.7, 15 -0.35 M14.64 0.11 C15.6 2.58, 14.66 5.48, 15.74 8.72 M14.93 0.27 C14.96 2.7, 14.88 6.51, 15.12 7.62 M14.04 7.61 C10.5 7.6, 5.91 8.23, -0.91 7.11 M15.38 7.7 C10.57 8.52, 7.25 7.8, 0.58 8.41 M0.55 7.79 C0.81 5.54, 0.78 3.53, -0.14 0.72 M-0.11 8.09 C0.28 5.46, -0.35 1.99, 0.07 -0.25" stroke="#000000" stroke-width="1" fill="none"/></g><g stroke-linecap="round" transform="translate(111.87401784992505 25.844556230059936) rotate(0 37.36187129004731 37.22230702263844)"><path d="M7.89 13.48 C7.89 13.48, 7.89 13.48, 7.89 13.48 M7.89 13.48 C7.89 13.48, 7.89 13.48, 7.89 13.48 M3.05 24.8 C6.9 18.71, 8.85 15.71, 19.57 6.67 M4.52 24.55 C9.84 18.32, 15.05 10.7, 18.46 6.62 M0.32 36.56 C7.99 23.94, 15.8 17.65, 26.86 3.84 M0.11 34.95 C9.97 23.02, 18.3 13.81, 28.67 2.99 M2.99 37.63 C14.91 25.38, 25.05 12.23, 30.97 3.29 M2.21 39.29 C12.51 25.38, 24.28 13.59, 33.66 2.58 M2.84 42.39 C15.81 29.8, 24.45 16, 40.08 1.08 M4.3 43.19 C17.37 26.64, 31.8 12.89, 39.3 2.75 M5.66 47.24 C11.27 38.18, 20.7 29.89, 42.77 1.42 M5.45 46.89 C20.03 32.11, 33.02 13.54, 43.63 2.89 M5.35 51.9 C22.39 34.59, 36.05 18.02, 49.87 4.63 M5.85 52.62 C19.87 37.26, 34.03 20.49, 49.2 3.48 M6.63 56.26 C19 46.11, 29.49 33.88, 51.9 5.29 M7.98 56.48 C21.8 39.69, 36.93 23.34, 51.93 4.2 M7.74 60.43 C20.39 48.3, 29.45 34.16, 55.08 7 M8.83 60.49 C22.15 45.53, 37.23 30.45, 55.62 7.75 M10.36 65.29 C24.78 46.66, 39.53 29.83, 60.62 9.67 M12.23 64.17 C25.04 48.44, 38.19 35.14, 58.73 9.17 M17.13 67.09 C25.16 50.89, 37.07 38.58, 61.5 12.69 M15.87 65.2 C28.05 50.51, 39.86 36.9, 61.57 12.03 M18.25 69.24 C32.4 54.72, 43.07 38.7, 64.43 15.1 M18.35 68.25 C33.62 51.28, 48.67 34.69, 65.77 14.67 M22.11 70.35 C32.34 57.3, 47.98 42.66, 70.55 18.27 M21.32 71 C35.44 56.42, 48.01 42.64, 69.45 15.83 M24.07 70.81 C42.71 51.88, 62.75 31.66, 68.19 20.66 M24.68 71.81 C40.19 54.99, 57.33 36.41, 69.42 21.55 M31.08 71.12 C39.75 60.94, 50.26 47.36, 70.04 26.11 M30.7 72.03 C45.47 56.72, 60.4 38.96, 70.87 24.4 M34.47 74.45 C44.81 60.74, 54.71 52.52, 74.72 30.95 M35.23 73.61 C44.37 63.3, 52.46 53.75, 72.33 30.68 M41.84 73.16 C53.35 60.11, 63.42 45.71, 72.63 36.05 M41.16 73.71 C49.41 61.95, 60.38 51.07, 74.07 33.44 M46.51 74.67 C51.55 65.62, 59.04 56.69, 77.43 39.11 M46.21 73.47 C54.67 63.69, 63.66 54.39, 75.02 38.88 M51.49 76.48 C59.29 65.74, 64.79 60.1, 71.42 52.55 M50.49 75.2 C57.61 65.77, 66.03 56.62, 70.57 51.19 M7.06 58.94 C7.06 58.94, 7.06 58.94, 7.06 58.94 M7.06 58.94 C7.06 58.94, 7.06 58.94, 7.06 58.94 M25.68 70.11 C20.31 64.62, 15.82 61.11, 3.08 51.34 M27.32 71.1 C20.36 65.11, 13.07 59.25, 5.2 52.13 M33.76 72.4 C26.54 63.94, 18.6 60.31, 1.66 42.68 M33.32 70.75 C22.34 62.61, 11.89 51.7, 0.94 44.16 M40.99 70.97 C28.52 58.94, 17.35 50.27, -1.17 36.9 M40.49 71.38 C28.77 61.66, 15.76 51.45, -1.85 35.45 M47.25 69.98 C35.22 63.08, 23.06 51.61, -0.25 33.77 M46.01 72.57 C31.31 59.84, 18.43 47.32, 0.47 32.58 M51.36 69.53 C35.13 58.33, 15.31 42.09, 2.5 26.59 M50.52 69.99 C39.12 59.46, 24.78 47.53, 2.07 28.15 M52.88 68.52 C38.81 54.68, 24.41 41.84, 3.28 22.88 M54.23 67.45 C37.05 51.94, 19.74 36.33, 4.45 23.52 M56.73 67.05 C43.42 52.08, 25.2 38.38, 5.35 20.21 M57.19 65.15 C37.72 47.58, 16.09 31.21, 5.77 19.65 M60.12 63.39 C44.71 50.57, 33.8 37.5, 5.75 17.76 M60.56 63.82 C42.72 49.54, 26.54 34.61, 7.01 16.7 M65.77 60.24 C51.18 47.49, 36.9 38.06, 8.67 11.99 M63.37 60.96 C48.63 47.9, 32.16 35.28, 7.91 12.74 M68.86 57.8 C47.31 42.93, 29.02 25.88, 10.69 10.96 M67.86 58.9 C49.63 44.73, 32.84 28.96, 11.57 10.08 M67.39 54.05 C48.75 37.12, 26.26 17.16, 14.21 9.99 M69.39 55.2 C49.91 37.32, 28.46 18.76, 16.41 7.98 M72.21 50.97 C53.03 35.12, 32.12 20.14, 20.59 5.94 M70.93 51.84 C52.1 35.16, 33.52 18.04, 18.79 4.98 M70.91 45.65 C62.58 36.09, 50.95 25.74, 24.16 4.86 M72.35 46.37 C60.27 37.73, 49.49 26.95, 23.45 3.51 M74.77 41.85 C57.88 28.99, 39.86 17.09, 25.87 1.68 M73.93 42.5 C56.61 27.43, 36.36 10.53, 26.61 1.69 M74.18 39.68 C57.92 23.45, 40.69 8.31, 31.48 3.07 M75.16 39.84 C60.93 26.19, 45.72 13.63, 32.72 1.2 M76.35 34.6 C67.83 29.03, 61.4 19.92, 40.23 3.28 M76.98 35.9 C70.15 29.22, 59.9 21.05, 38.5 3.11 M77.46 27.75 C67.08 22.13, 58.57 13.55, 44.56 0.31 M75.4 28.45 C63.45 18.26, 53.35 9.12, 45.18 1.12 M72.68 20.09 C65.07 12.74, 55.71 6.48, 50.02 1.55 M73.95 20.72 C64.98 14.15, 57.22 7.9, 49.89 1.25" stroke="#3c8cbf" stroke-width="0.5" fill="none"/><path d="M50.07 2.34 C56.97 4.26, 64.34 10.12, 68.57 16.18 C72.79 22.24, 75.72 31.45, 75.42 38.7 C75.13 45.94, 71.25 53.81, 66.79 59.65 C62.33 65.48, 55.59 71.54, 48.67 73.69 C41.74 75.83, 32.24 75.01, 25.25 72.51 C18.26 70, 11.04 64.67, 6.74 58.66 C2.43 52.65, -0.72 43.92, -0.57 36.43 C-0.42 28.95, 3.17 19.51, 7.65 13.76 C12.13 8.02, 18.82 3.7, 26.31 1.96 C33.8 0.23, 48.04 2.91, 52.6 3.35 C57.16 3.78, 53.85 4.23, 53.68 4.59 M53.45 2.9 C60.03 5.42, 67.15 13.05, 70.44 19.12 C73.73 25.2, 73.84 32.31, 73.17 39.34 C72.5 46.37, 71.22 55.39, 66.39 61.31 C61.57 67.22, 51.41 73.11, 44.21 74.85 C37 76.59, 29.48 74.94, 23.17 71.73 C16.86 68.53, 10.31 61.99, 6.36 55.65 C2.4 49.31, -0.86 40.73, -0.57 33.69 C-0.28 26.66, 3.03 18.98, 8.1 13.44 C13.17 7.91, 22.5 2.12, 29.85 0.48 C37.2 -1.15, 48.59 2.96, 52.21 3.61 C55.83 4.26, 51.66 3.77, 51.55 4.37" stroke="#ffffff" stroke-width="1" fill="none"/></g><g stroke-linecap="round" transform="translate(111.76581246729194 26.220518244240395) rotate(0 37.36187129004731 37.22230702263844)"><path d="M10.76 12 C10.76 12, 10.76 12, 10.76 12 M10.76 12 C10.76 12, 10.76 12, 10.76 12 M2.59 25.63 C6.44 20.5, 13.29 15.77, 22.89 3.79 M2.92 27.96 C8.5 19.68, 13.96 13.38, 21.57 5.92 M1.63 33.41 C12.42 23.37, 22.89 9.89, 32.1 1.47 M2.19 33.86 C9.18 26.11, 18.9 15.96, 31.91 -0.22 M4.17 39.12 C11.86 28.73, 19 18.81, 36.49 0.03 M2.43 38.64 C15.3 25.24, 27.42 11.24, 35.8 1.82 M4.82 43.99 C10.19 34.21, 21.39 24.66, 42.32 0.29 M3.73 43.48 C12.72 35.51, 21.23 24.87, 39.65 2.76 M3.65 49.19 C18.04 35.02, 30.76 16.87, 47.01 1.66 M5.63 50.25 C15.6 35.05, 28.44 22.08, 46.17 2.9 M6.27 55.18 C18.3 40.77, 33.81 25.2, 50.31 4.92 M5.59 55.85 C19.58 39.22, 32.62 24.31, 49.07 2.91 M8.42 59.5 C21.53 44.62, 31.38 31.1, 55.04 2.2 M7.14 58.02 C24.43 39, 38.77 20.96, 54.21 4.91 M11.48 61.35 C27.9 39.27, 46.36 19.37, 57.14 6.92 M9.8 61.01 C20.97 50.76, 30.24 39.12, 57.19 6.36 M11.75 62.68 C25.12 47.57, 39.84 35.52, 59.57 9.22 M13.8 62.61 C24.78 51.41, 33.99 39.07, 59.66 10.61 M14.44 65.21 C26.53 51.87, 38.51 40.13, 62.47 14.37 M16.63 66.3 C33.23 47.2, 49.15 28.17, 62.97 13.24 M20.35 70.48 C29.37 56.23, 39.93 44.99, 66.44 13.79 M19.12 69.24 C33.21 53.92, 46.01 39.38, 65.91 16.2 M20.65 72.72 C33.28 61.52, 42.53 52.29, 68.59 16.12 M22.71 72.25 C36.2 57.55, 49.06 41.24, 70.25 16.87 M25.46 72.6 C38.04 61.78, 44.51 50.54, 73.21 19.53 M25.48 73.55 C42.24 56.2, 55.3 40.43, 71.85 21.41 M30.6 74.11 C46.01 55.08, 60.58 39.01, 74.48 24.31 M31.41 74.64 C46.19 57.27, 59.69 39.31, 72.89 25.36 M36.28 72.56 C50.26 59.68, 65.02 43.95, 73.11 30.38 M36.52 74.42 C49.66 59.03, 63.4 42.74, 74.87 30.21 M41.79 74.93 C47.33 65.5, 53.56 59.56, 75.06 34.38 M39.96 74.49 C51.62 62.44, 60.98 49.95, 74.95 34.53 M44.1 75.92 C54.54 63.26, 68.6 50.77, 76.24 39.74 M46.22 75.25 C56.37 64.46, 64.96 52.1, 76.99 39.02 M57.91 68.71 C60.81 65.66, 66.17 60.01, 79.18 43 M55.54 69.75 C62.67 61.85, 69.31 54.21, 77.75 44.9 M20.44 70.99 C20.44 70.99, 20.44 70.99, 20.44 70.99 M20.44 70.99 C20.44 70.99, 20.44 70.99, 20.44 70.99 M26.25 70.5 C22.76 67.65, 17.13 63.76, 5.73 52.86 M27.72 71.88 C20.14 65.83, 14.21 60.45, 4.94 53.47 M35.08 71.82 C26.84 68.13, 19.96 59.21, 5.46 45.42 M34.43 73.41 C23.25 61.67, 10.55 52.74, 4.51 46.79 M42.7 71.99 C35.07 66.45, 24.81 59.96, 2.3 40.54 M42.5 73.9 C29.27 63.63, 17.72 53, 2.15 40.58 M46.71 72.95 C29.68 57, 12.63 45.14, 0.2 32.91 M45.33 72.24 C32.26 59.83, 16.98 47.63, 0.42 32.69 M51.28 72.09 C29.29 53.71, 12.64 35.57, 1.14 26.79 M50.77 70.03 C32.51 54.1, 16.17 40.23, 2 29.17 M54.06 67.95 C39.98 55.11, 21.46 38.83, 4.74 23.19 M53.49 67.38 C43.48 57.55, 33.09 48.27, 3.73 24.39 M58.91 65.84 C39.07 50.77, 22.8 35.84, 8.03 23.31 M58.15 65.54 C42.75 53.87, 30.01 40.43, 5.89 22.61 M59.29 63.54 C48.85 50.9, 33.55 42.37, 8.55 18.29 M60.29 64.64 C39.95 46.55, 18.94 27.94, 7.79 18.68 M67.73 61.51 C45.43 45.39, 21.9 24.21, 9.65 15.45 M66.26 62.92 C43.58 44.85, 21.79 25.18, 10.47 14.38 M65.24 59.39 C54 48.35, 42.21 38.65, 12.07 12.01 M66.07 59.25 C50.87 44.77, 35.44 31.16, 12.79 11.09 M69.29 55.37 C53.3 40.56, 39.13 31.58, 16.97 7.33 M69.91 55.57 C55.12 43.21, 42.34 31.37, 15.93 8.15 M71.47 51.38 C51.24 37.23, 36.71 20.63, 20.77 7.96 M71.21 52.08 C57.93 40.01, 43.25 27.09, 18.7 6.89 M74.17 46.67 C60.87 34.41, 48.36 25.86, 21.41 3.27 M71.79 47.87 C52.45 29.63, 33.69 12.81, 23.24 4.28 M74.54 43.49 C54.44 29.66, 37.79 12.35, 28.77 1.03 M75.35 44.6 C61.26 32.82, 50.01 22.24, 27.95 1.59 M75.91 40 C64.41 29.65, 52.89 21.91, 32.09 1.16 M77.29 40.46 C60.15 26.25, 42.91 10.51, 30.34 0.12 M73.69 34.7 C64.61 22.93, 53.64 14.99, 36.71 1.23 M76.13 34.67 C61.21 22.35, 47.89 11.61, 38.28 1.78 M74.69 29.21 C67.28 21.65, 57.59 12.11, 46.9 2.33 M73.26 27.21 C65.96 20.37, 56.78 11.48, 46.27 2.93 M70.14 17.49 C64.45 14.2, 58.72 9.32, 53.67 5.15 M69.46 18.14 C63.41 13.21, 56.13 6.93, 51.7 3.57" stroke="#3c8cbf" stroke-width="0.5" fill="none"/><path d="M30.77 0.49 C37.63 -1.25, 47.55 0.79, 54.1 3.87 C60.66 6.95, 66.56 12.51, 70.09 18.98 C73.63 25.46, 76.16 35.38, 75.32 42.73 C74.49 50.07, 70.22 57.8, 65.09 63.07 C59.96 68.34, 51.92 72.99, 44.53 74.35 C37.14 75.72, 27.45 74.58, 20.75 71.26 C14.05 67.94, 7.87 60.81, 4.35 54.42 C0.83 48.03, -1.42 40, -0.35 32.93 C0.72 25.86, 5.28 17.43, 10.76 12 C16.25 6.57, 28.43 2.35, 32.58 0.34 C36.73 -1.67, 35.46 -0.76, 35.68 -0.06 M32.19 1.27 C38.54 -0.56, 46.18 -0.55, 52.76 2.5 C59.33 5.54, 68.23 12.61, 71.61 19.54 C75 26.48, 74.23 36.75, 73.07 44.12 C71.91 51.49, 69.4 58.88, 64.65 63.78 C59.91 68.67, 52.08 72.37, 44.61 73.5 C37.14 74.62, 26.8 73.58, 19.84 70.53 C12.89 67.48, 6.02 61.76, 2.88 55.2 C-0.26 48.65, -0.32 38.49, 0.99 31.21 C2.3 23.94, 5.75 16.59, 10.73 11.57 C15.72 6.55, 27.31 2.69, 30.88 1.09 C34.46 -0.52, 32.22 1.35, 32.18 1.93" stroke="#ffffff" stroke-width="1" fill="none"/></g><g stroke-linecap="round" transform="translate(150.72043942144728 34.26010925324974) rotate(0 21.178274523818814 21.08523167887958)"><path d="M9.4 4.19 C9.4 4.19, 9.4 4.19, 9.4 4.19 M9.4 4.19 C9.4 4.19, 9.4 4.19, 9.4 4.19 M1.28 19.28 C4.85 13.52, 6.52 10.85, 16.49 2.67 M2.75 19.04 C7.58 13.35, 12.31 6.28, 15.37 2.61 M3.14 25.76 C8.74 15.61, 14.44 11.74, 22.46 1.34 M2.93 24.15 C10.34 15.05, 16.2 8.7, 24.28 0.49 M3.84 29.1 C13.28 19.6, 21.01 9.22, 25.26 2.3 M3.06 30.75 C11.03 19.5, 20.53 10.32, 27.95 1.59 M4.35 33.1 C14.57 23.62, 20.44 12.99, 33.06 1.61 M5.81 33.89 C15.48 21.1, 26.59 11.17, 32.28 3.27 M9.14 35.69 C12.35 29.51, 19.29 24.09, 34.44 3.45 M8.93 35.33 C19.04 25.62, 27.62 12.13, 35.3 4.92 M9.48 39.59 C21.34 28.31, 29.76 17.78, 39.57 8.93 M9.98 40.31 C19.46 30.29, 28.97 18.87, 38.89 7.78 M12.08 42.44 C20.4 36.7, 27 28.95, 39.63 11.85 M13.43 42.66 C21.59 32.24, 31.24 22.19, 39.66 10.76 M17.12 42.08 C24.61 36.37, 28.26 28.46, 41.5 15.06 M18.21 42.14 C24.67 34.8, 32.95 27.54, 42.04 15.81 M21.71 44.68 C27.82 35.15, 34.56 27.54, 45.07 20.01 M23.58 43.55 C29.1 35.89, 35.07 30.83, 43.18 19.5 M29.73 44.89 C29.87 38.21, 33.47 35.4, 40.09 29.77 M28.52 43.09 C32.13 38.86, 35.07 35.45, 40.15 29.14 M12.17 40.88 C12.17 40.88, 12.17 40.88, 12.17 40.88 M12.17 40.88 C12.17 40.88, 12.17 40.88, 12.17 40.88 M18.86 40.85 C13.05 38.07, 12.24 34.3, 4.98 29.99 M18.08 41.5 C15.33 37.71, 11.39 34.85, 3.87 27.55 M23.54 39.71 C15.26 32.72, 8.67 25.03, 0.41 21.19 M24.16 40.7 C16.34 34.91, 10.29 27.23, 1.64 22.08 M29.71 37.95 C20.99 34.17, 13.89 26.51, -0.59 16.21 M29.32 38.85 C19.32 32.18, 9.59 22.7, 0.24 14.5 M31.48 38.55 C25.16 29.73, 18.39 26.08, 5.66 13.15 M32.25 37.72 C25.87 32.05, 18.45 26.76, 3.27 12.87 M37.25 34.54 C26.52 25.45, 14.36 15.54, 3.73 10.43 M36.57 35.09 C26.77 26.99, 19.73 19.75, 5.18 7.82 M40.31 33.32 C30.13 26.5, 22.43 19.51, 10.11 5.59 M40.01 32.13 C30.95 24.75, 22.44 17.69, 7.7 5.35 M42.07 29.69 C32.38 18.08, 20.38 11.95, 11.58 4.32 M41.07 28.41 C29 18.53, 18.22 8.83, 10.72 2.96 M42.3 24.68 C34.63 15.62, 23.62 7.9, 14.43 2.78 M41.69 23.82 C33.32 17.26, 23.08 7.07, 15 1.93 M41.97 19.36 C36.42 13.71, 31.74 10.04, 18.62 -0.06 M43.61 20.36 C36.42 14.17, 28.9 8.11, 20.73 0.73 M45.52 17.72 C40.88 11.52, 35.47 10.08, 24.74 -2.16 M45.08 16.07 C37.95 11.23, 31.42 3.71, 24.03 -0.68" stroke="#77b153" stroke-width="0.5" fill="none"/><path d="M23.23 0.31 C27.49 0.27, 32.4 2.21, 35.72 5.4 C39.04 8.59, 42.53 14.85, 43.14 19.46 C43.75 24.06, 42.01 29.3, 39.39 33.04 C36.78 36.77, 31.99 40.56, 27.44 41.86 C22.9 43.16, 16.34 42.82, 12.1 40.82 C7.86 38.81, 4.02 33.87, 1.99 29.83 C-0.03 25.8, -1.26 20.84, -0.06 16.62 C1.13 12.39, 4.97 7.16, 9.17 4.46 C13.36 1.76, 21.89 1.05, 25.1 0.39 C28.31 -0.27, 28.37 0.06, 28.44 0.49 M18.62 1.06 C22.41 -0.11, 26.67 -0.59, 30.6 1.48 C34.54 3.56, 40.69 8.79, 42.22 13.52 C43.75 18.24, 41.42 25.43, 39.77 29.82 C38.11 34.21, 35.83 37.93, 32.27 39.85 C28.72 41.77, 23.15 42.24, 18.45 41.35 C13.74 40.46, 7.34 37.77, 4.05 34.5 C0.76 31.23, -1.56 26.32, -1.29 21.73 C-1.01 17.14, 2.52 10.44, 5.68 6.95 C8.84 3.46, 15.73 1.74, 17.69 0.8 C19.64 -0.14, 17.2 0.91, 17.39 1.29" stroke="#ffffff" stroke-width="1" fill="none"/></g><g stroke-linecap="round" transform="translate(110.46700327256599 23.29242545368939) rotate(0 12.811800260359803 12.471730374874099)"><path d="M3.98 3.46 C3.98 3.46, 3.98 3.46, 3.98 3.46 M3.98 3.46 C3.98 3.46, 3.98 3.46, 3.98 3.46 M1.72 10.66 C3.49 8.06, 7.67 5.77, 13.24 -1.38 M1.99 12.53 C4.94 7.7, 7.76 4.44, 12.18 0.33 M2.07 16.56 C7.23 13.16, 12.07 6.17, 17.45 1.99 M2.63 17.02 C5.47 14.09, 11.05 8.71, 17.26 0.3 M5.27 21.53 C8.52 16.27, 11.11 11.58, 21.18 1.3 M3.52 21.04 C10.51 14.59, 16.67 7.44, 20.49 3.09 M8.54 23.38 C9.49 18.54, 16.35 13.99, 25.71 3.07 M7.45 22.86 C11.97 20.3, 15.84 15, 23.04 5.54 M10 25.56 C16.14 20.98, 20.47 12.49, 27.77 7.46 M11.97 26.61 C14.75 19.76, 20.15 15.35, 26.93 8.7 M18.36 24.72 C20.42 21.7, 25.58 17.7, 29.04 12.78 M17.79 25.28 C21.66 20.4, 24.88 16.79, 27.98 11.07 M1.35 19.79 C1.35 19.79, 1.35 19.79, 1.35 19.79 M1.35 19.79 C1.35 19.79, 1.35 19.79, 1.35 19.79 M11.31 22.96 C6.34 18.66, 2.87 15.87, 0.9 13.88 M10.22 22.73 C9.02 21.41, 6.65 19.35, 0.94 13.51 M16.01 22.73 C12.66 18.61, 11 17, 1.4 9.08 M18.06 22.66 C15.01 20.84, 10.14 17.48, 1.49 10.46 M19.71 19.51 C15.86 16.58, 11.62 14.69, 3.15 7.93 M21.9 20.6 C15.32 15.5, 8.01 10.58, 3.65 6.8 M25.99 19.8 C19.55 14.52, 14.77 11.84, 5.22 0.39 M24.76 18.56 C20.04 13.79, 14.2 9.64, 4.69 2.8 M25.9 16.39 C25.4 12.89, 21.47 11.45, 8.48 -1.61 M27.95 15.93 C23.03 12.22, 17.67 6.67, 10.14 -0.86 M25.36 8.97 C24.71 6.55, 19.11 4.22, 14.08 -2.39 M25.37 9.77 C22.89 5.38, 17.51 2.69, 12.93 -0.79" stroke="#77b153" stroke-width="0.5" fill="none"/><path d="M11.82 -0.38 C14.44 -0.65, 18.9 1.4, 21.23 3.08 C23.56 4.76, 25.25 7.14, 25.81 9.7 C26.38 12.26, 26.03 16.03, 24.64 18.46 C23.24 20.88, 20.05 23.37, 17.46 24.27 C14.87 25.17, 11.75 24.57, 9.1 23.85 C6.45 23.13, 2.96 22.02, 1.55 19.97 C0.13 17.92, 0.22 14.28, 0.62 11.55 C1.01 8.81, 1.49 5.62, 3.91 3.55 C6.33 1.49, 12.93 -0.45, 15.13 -0.83 C17.34 -1.21, 17.38 0.8, 17.15 1.28 M10.62 -1.44 C13.24 -1.99, 19.23 -0.21, 21.46 1.84 C23.7 3.88, 23.44 8.06, 24.03 10.81 C24.63 13.57, 25.83 16.29, 25.01 18.39 C24.2 20.5, 21.9 22.43, 19.14 23.44 C16.38 24.46, 11.51 25.02, 8.46 24.49 C5.41 23.96, 2.16 22.58, 0.86 20.28 C-0.44 17.98, 0.13 13.42, 0.64 10.7 C1.15 7.98, 2.09 5.65, 3.91 3.97 C5.73 2.29, 10.1 1.12, 11.57 0.62 C13.05 0.12, 12.89 0.8, 12.77 0.98" stroke="#ffffff" stroke-width="1" fill="none"/></g><g stroke-linecap="round" transform="translate(124.34934034063039 80.72398300026107) rotate(0 16.47168498241072 15.9313472755043)"><path d="M8.98 1.18 C8.98 1.18, 8.98 1.18, 8.98 1.18 M8.98 1.18 C8.98 1.18, 8.98 1.18, 8.98 1.18 M2.28 12.89 C6.93 10.16, 11.17 4.57, 14.42 2.87 M3.31 13.17 C5.95 10.03, 9.97 6.26, 14.56 1.61 M3.57 21 C9.31 13.08, 17.31 5.72, 19.1 1.07 M3.22 20.19 C10.05 13.38, 15.07 6.3, 19.38 1.71 M4.48 24.41 C7.06 19.61, 14.38 12.44, 24.55 3.72 M5.02 24.53 C12.1 16.58, 18.17 9.49, 22.42 2.66 M5.67 26.28 C14.37 19.52, 19.86 13.17, 25.53 6.36 M8.11 28.42 C14.83 20.05, 19.53 13.24, 27.24 5.41 M9.06 32.67 C14.54 23.03, 22.53 17.14, 30.45 8.43 M8.28 30.7 C13.76 25.78, 18.73 21.16, 30.64 6.27 M14.05 32.51 C21.42 26.17, 25.65 20.28, 32.23 9.94 M15.59 30.99 C22.09 23.37, 27.05 15.12, 31.9 10.19 M21.75 31.13 C23.57 26.68, 28.6 19.6, 34.13 15.69 M21.14 30.11 C24.19 25.18, 28.82 21.36, 34.25 15.11 M8.01 30.42 C8.01 30.42, 8.01 30.42, 8.01 30.42 M8.01 30.42 C8.01 30.42, 8.01 30.42, 8.01 30.42 M13.49 29.54 C11.06 27.18, 5.2 22.42, 1.97 21.03 M14.93 30.87 C9.81 26.98, 5.71 23.88, 2.72 21.35 M19.08 29.27 C12.63 25.21, 6.01 20.29, 3.88 15.38 M20.33 30.01 C14.28 26.15, 9.9 22.33, 1.99 14.92 M23.52 28.02 C15.2 22.48, 8.4 13.5, 1.87 8.66 M24.95 28.2 C17.48 22.59, 9.64 17.19, 1.31 9.7 M29.34 26.45 C22.74 22.62, 14.06 13.31, 4.5 5.56 M28.27 26.91 C20.22 19.15, 13.17 12.04, 4.06 5.82 M32.39 23.26 C24.09 18.86, 21.85 14.08, 7.9 1.9 M31.79 23.22 C25.06 19.6, 19.9 15.5, 8.25 3.82 M32.03 19.14 C26.31 16.83, 24.37 10.81, 11.16 0.94 M33.06 20.33 C26.98 15.23, 22.54 11.91, 10.66 0 M33.56 16.38 C28.77 10.36, 19.34 4.31, 17.03 -0.36 M32.63 16.16 C26.74 10.62, 21.84 5.01, 14.98 0.8 M30.11 6.91 C26.48 6.3, 24.74 2.33, 20.74 -0.03 M30.96 7.23 C27.2 4.27, 24.12 1.8, 21 -0.6" stroke="#77b153" stroke-width="0.5" fill="none"/><path d="M19.62 0.86 C23.08 1.21, 26.99 3.01, 29.25 5.51 C31.52 8.01, 33.29 12.43, 33.23 15.86 C33.17 19.3, 31.14 23.61, 28.9 26.11 C26.65 28.61, 23.2 30.15, 19.74 30.88 C16.28 31.62, 11.12 31.95, 8.13 30.52 C5.13 29.09, 2.99 25.54, 1.77 22.3 C0.55 19.06, -0.34 14.55, 0.8 11.09 C1.95 7.63, 5.01 3.15, 8.67 1.55 C12.32 -0.06, 20.13 1.15, 22.75 1.45 C25.38 1.74, 24.69 3.06, 24.44 3.32 M21.78 -0.05 C25.09 1.04, 26.76 5.11, 28.73 8.07 C30.7 11.02, 33.5 14.57, 33.6 17.69 C33.7 20.8, 32.06 24.37, 29.32 26.73 C26.59 29.09, 21.11 31.32, 17.18 31.85 C13.25 32.38, 8.43 31.92, 5.75 29.89 C3.08 27.86, 1.84 23.04, 1.13 19.68 C0.41 16.32, 0.15 12.66, 1.47 9.73 C2.8 6.8, 5.74 3.51, 9.07 2.1 C12.4 0.68, 19.75 1.38, 21.47 1.24 C23.19 1.1, 19.45 1.07, 19.38 1.27" stroke="#ffffff" stroke-width="1" fill="none"/></g><g stroke-linecap="round" transform="translate(139.91375488106252 31.140643249931202) rotate(0 2.688249012485315 2.672741871662126)"><path d="M3.04 0.77 C3.34 0.62, 3.35 0.39, 3.88 0.69 C4.4 0.98, 5.92 2.16, 6.21 2.56 C6.49 2.96, 6.1 2.59, 5.57 3.09 C5.03 3.6, 3.68 5.39, 3 5.6 C2.32 5.81, 1.79 4.65, 1.5 4.34 C1.21 4.03, 1.54 4.06, 1.25 3.74 C0.95 3.41, -0.23 3.05, -0.27 2.38 C-0.32 1.71, 0.55 0.17, 0.96 -0.3 C1.37 -0.77, 1.8 -0.54, 2.18 -0.45 C2.55 -0.35, 2.96 0.31, 3.18 0.28 M3.5 0.78 C3.79 0.65, 4.33 -0.33, 4.39 0.05 C4.46 0.43, 3.86 2.27, 3.9 3.07 C3.95 3.87, 4.6 4.46, 4.67 4.85 C4.75 5.24, 4.64 5.39, 4.35 5.41 C4.05 5.43, 3.75 5.3, 2.91 4.97 C2.06 4.64, -0.47 4.07, -0.71 3.45 C-0.95 2.82, 0.99 1.6, 1.44 1.2 C1.89 0.81, 1.61 1.31, 1.99 1.05 C2.36 0.79, 3.52 -0.29, 3.69 -0.36 C3.86 -0.43, 2.99 0.71, 3 0.64" stroke="none" stroke-width="0" fill="#ffffff"/><path d="M2.71 0.33 C3.14 0.16, 3.93 0.57, 4.25 0.86 C4.56 1.15, 4.46 1.75, 4.59 2.09 C4.72 2.43, 5.22 2.32, 5.03 2.88 C4.84 3.44, 3.81 4.97, 3.45 5.44 C3.09 5.9, 3.32 5.83, 2.86 5.67 C2.41 5.51, 1.02 5.13, 0.71 4.49 C0.39 3.86, 0.86 2.35, 0.97 1.86 C1.09 1.37, 1.19 1.75, 1.39 1.57 C1.6 1.39, 1.96 0.94, 2.19 0.79 C2.42 0.63, 2.63 0.89, 2.78 0.65 M0.2 1.6 C0.61 1.48, 3 0.61, 3.97 0.44 C4.94 0.27, 5.89 0.18, 6 0.57 C6.11 0.97, 5.06 2.02, 4.63 2.82 C4.2 3.61, 3.57 5.01, 3.4 5.36 C3.23 5.71, 3.99 4.91, 3.62 4.92 C3.26 4.94, 1.86 5.6, 1.2 5.46 C0.55 5.32, -0.25 4.61, -0.29 4.09 C-0.33 3.58, 0.87 2.94, 0.95 2.38 C1.03 1.81, -0.04 1.01, 0.18 0.73 C0.4 0.45, 1.94 0.75, 2.26 0.69" stroke="#ffffff" stroke-width="1" fill="none"/></g><g stroke-linecap="round" transform="translate(148.59575969598154 34.583914759007826) rotate(0 2.688249012485315 2.672741871662126)"><path d="M3.12 0.23 C3.73 0.33, 5.46 1.39, 5.92 1.73 C6.38 2.07, 6.24 1.7, 5.89 2.27 C5.53 2.85, 4.36 4.8, 3.77 5.18 C3.19 5.55, 2.7 4.63, 2.37 4.51 C2.04 4.38, 2.24 4.63, 1.8 4.42 C1.36 4.21, -0.05 3.94, -0.29 3.26 C-0.53 2.58, 0.15 0.96, 0.38 0.36 C0.61 -0.24, 0.44 -0.37, 1.09 -0.32 C1.75 -0.26, 3.61 0.62, 4.31 0.68 C5.01 0.75, 5.29 -0.08, 5.3 0.07 M2.58 -0.83 C2.81 -0.87, 2.65 0.61, 3.09 1.24 C3.53 1.87, 4.74 2.42, 5.23 2.93 C5.72 3.44, 6.07 3.92, 6.02 4.3 C5.97 4.67, 5.8 5.08, 4.91 5.18 C4.02 5.28, 1.24 5.22, 0.69 4.89 C0.13 4.56, 1.56 3.57, 1.58 3.2 C1.6 2.83, 0.77 3.19, 0.8 2.67 C0.82 2.16, 1.39 0.48, 1.73 0.13 C2.07 -0.23, 2.51 0.76, 2.82 0.56 C3.13 0.36, 3.75 -1.25, 3.6 -1.06" stroke="none" stroke-width="0" fill="#ffffff"/><path d="M3.92 0.71 C4.25 0.89, 4.24 1.46, 4.44 1.77 C4.64 2.07, 5.24 1.96, 5.12 2.54 C5.01 3.11, 4.06 4.7, 3.74 5.23 C3.42 5.76, 3.68 5.78, 3.22 5.7 C2.76 5.61, 1.33 5.32, 0.96 4.74 C0.59 4.16, 0.97 2.69, 1.01 2.22 C1.05 1.74, 1.12 2.08, 1.19 1.87 C1.27 1.65, 1 1.08, 1.46 0.94 C1.92 0.79, 3.38 1.16, 3.97 0.98 C4.55 0.79, 5.16 -0.23, 4.99 -0.18 M2.88 0.43 C3.82 0, 4.91 -0.35, 5.17 -0.13 C5.43 0.09, 4.65 0.99, 4.45 1.75 C4.24 2.51, 3.91 3.96, 3.95 4.43 C3.98 4.89, 4.93 4.33, 4.65 4.56 C4.36 4.8, 2.95 5.76, 2.22 5.83 C1.49 5.91, 0.49 5.43, 0.24 5.03 C0 4.63, 0.9 4.04, 0.75 3.44 C0.6 2.84, -1.03 1.93, -0.66 1.42 C-0.29 0.91, 2.4 0.63, 2.97 0.39 C3.54 0.14, 3.03 0.05, 2.74 -0.06" stroke="#ffffff" stroke-width="1" fill="none"/></g><g stroke-linecap="round" transform="translate(120.22649970576242 50.99724680732038) rotate(0 2.688249012485315 2.672741871662126)"><path d="M4.56 0.52 C5.27 0.53, 5.6 -0.04, 5.62 0.48 C5.65 1, 4.99 3.06, 4.73 3.64 C4.48 4.21, 4.3 3.7, 4.1 3.94 C3.89 4.18, 4.08 4.94, 3.49 5.09 C2.91 5.24, 1.15 5.35, 0.57 4.85 C-0.01 4.36, 0.16 2.81, 0.01 2.13 C-0.14 1.46, -0.66 1.11, -0.34 0.8 C-0.02 0.5, 1.06 0.52, 1.92 0.32 C2.79 0.12, 4.34 -0.65, 4.85 -0.41 C5.35 -0.17, 5.03 1.51, 4.93 1.75 M1.89 0.57 C2.45 0.9, 3.98 1.24, 4.74 1.65 C5.51 2.05, 6.25 2.53, 6.47 3 C6.7 3.48, 6.83 4.13, 6.09 4.48 C5.36 4.84, 2.65 5.15, 2.05 5.11 C1.44 5.07, 2.68 4.42, 2.48 4.24 C2.27 4.06, 1.08 4.55, 0.81 4.04 C0.54 3.53, 0.75 1.72, 0.86 1.19 C0.97 0.65, 0.93 1.19, 1.47 0.82 C2.01 0.45, 3.93 -1.16, 4.08 -1.04 C4.23 -0.92, 2.26 1.28, 2.37 1.54" stroke="none" stroke-width="0" fill="#ffffff"/><path d="M2.47 0.44 C2.93 0.29, 4.1 -0.18, 4.47 0.26 C4.85 0.7, 4.57 2.34, 4.72 3.07 C4.86 3.81, 5.6 4.29, 5.36 4.66 C5.12 5.04, 3.76 5.41, 3.27 5.32 C2.77 5.23, 2.78 4.31, 2.4 4.13 C2.03 3.95, 1.45 4.47, 1.02 4.22 C0.59 3.97, -0.21 3.17, -0.2 2.63 C-0.18 2.09, 0.39 1.55, 1.13 0.99 C1.87 0.44, 3.88 -0.76, 4.25 -0.71 C4.61 -0.66, 3.49 1.24, 3.32 1.3 M5 -0.21 C5.27 -0.07, 4.54 0.83, 4.37 1.57 C4.2 2.32, 3.93 3.76, 4 4.24 C4.08 4.72, 5.07 4.19, 4.81 4.46 C4.54 4.73, 3.15 5.74, 2.41 5.86 C1.67 5.98, 0.65 5.54, 0.38 5.17 C0.1 4.8, 0.96 4.23, 0.77 3.63 C0.57 3.03, -1.11 2.11, -0.77 1.58 C-0.44 1.04, 1.92 0.68, 2.78 0.43 C3.64 0.18, 4.37 0.2, 4.37 0.07 C4.38 -0.05, 2.93 -0.62, 2.82 -0.31" stroke="#ffffff" stroke-width="1" fill="none"/></g><g stroke-linecap="round" transform="translate(129.35952523904407 75.60145748166153) rotate(0 2.688249012485315 2.6727418716621223)"><path d="M3.31 -0.93 C3.62 -0.94, 3.58 0.68, 3.88 1.07 C4.17 1.47, 4.76 0.97, 5.1 1.43 C5.43 1.88, 6.19 3.15, 5.88 3.81 C5.57 4.47, 3.93 5.33, 3.23 5.4 C2.53 5.47, 2.3 4.57, 1.69 4.25 C1.09 3.93, -0.15 3.82, -0.41 3.5 C-0.68 3.18, -0.22 2.97, 0.12 2.34 C0.46 1.7, 1.1 -0.06, 1.63 -0.31 C2.16 -0.55, 3 0.73, 3.3 0.85 C3.6 0.97, 3.38 0.53, 3.41 0.41 M1.82 0.63 C2.76 0.39, 4.09 0.22, 4.88 0.36 C5.68 0.49, 6.67 0.98, 6.59 1.44 C6.51 1.9, 4.56 2.64, 4.39 3.09 C4.23 3.55, 5.77 3.71, 5.58 4.2 C5.38 4.68, 3.91 5.99, 3.22 5.99 C2.53 5.99, 1.98 4.63, 1.44 4.21 C0.9 3.8, 0 4.2, -0.04 3.51 C-0.09 2.82, 1.01 0.39, 1.18 0.06 C1.35 -0.28, 0.6 1.46, 0.98 1.5 C1.35 1.55, 3.07 0.72, 3.41 0.32" stroke="none" stroke-width="0" fill="#ffffff"/><path d="M3.2 -0.52 C3.72 -0.39, 3.79 1.02, 4.25 1.66 C4.7 2.29, 5.86 2.79, 5.91 3.28 C5.97 3.78, 4.93 4.42, 4.59 4.61 C4.24 4.81, 4.31 4.31, 3.87 4.44 C3.43 4.56, 2.63 5.45, 1.94 5.39 C1.26 5.34, 0.06 4.67, -0.24 4.12 C-0.54 3.57, -0.25 2.9, 0.14 2.1 C0.53 1.3, 1.64 -0.49, 2.1 -0.68 C2.56 -0.87, 2.61 0.91, 2.91 0.98 C3.21 1.06, 3.6 -0.23, 3.89 -0.23 M2.28 0.07 C2.42 0.33, 2.77 1.41, 3.38 1.76 C3.98 2.1, 5.7 1.64, 5.94 2.15 C6.17 2.66, 5.28 4.19, 4.77 4.81 C4.25 5.43, 3.28 5.72, 2.85 5.88 C2.43 6.03, 2.86 6.04, 2.21 5.75 C1.56 5.46, -0.83 4.71, -1.04 4.12 C-1.25 3.53, 0.46 2.86, 0.93 2.21 C1.41 1.57, 1.62 0.72, 1.8 0.25 C1.99 -0.21, 1.86 -0.79, 2.06 -0.58 C2.27 -0.37, 2.71 1.28, 3.05 1.5" stroke="#ffffff" stroke-width="1" fill="none"/></g><g stroke-linecap="round" transform="translate(124.4668500077579 68.09217948507523) rotate(0 2.688249012485315 2.6727418716621223)"><path d="M2.54 0.44 C2.95 0.52, 3.86 -0.23, 4.48 0.09 C5.1 0.42, 6.28 1.64, 6.27 2.39 C6.27 3.13, 4.97 4.23, 4.45 4.56 C3.93 4.89, 3.8 4.39, 3.17 4.39 C2.53 4.38, 1.11 4.64, 0.63 4.55 C0.14 4.45, 0.22 4.41, 0.24 3.8 C0.26 3.2, 0.54 1.33, 0.77 0.89 C1 0.46, 1.08 1.27, 1.6 1.2 C2.12 1.14, 3.35 0.64, 3.87 0.5 C4.4 0.36, 4.88 0.53, 4.75 0.36 M4.23 0.16 C5.04 0.12, 6.17 0.49, 6.21 0.87 C6.25 1.25, 4.5 1.94, 4.47 2.42 C4.45 2.89, 6.17 3.14, 6.08 3.73 C5.98 4.32, 4.59 5.8, 3.9 5.95 C3.22 6.1, 2.62 4.92, 1.99 4.62 C1.36 4.33, 0.3 4.83, 0.12 4.17 C-0.07 3.51, 0.83 1.07, 0.87 0.67 C0.91 0.27, -0.27 1.85, 0.35 1.77 C0.96 1.7, 3.94 0.69, 4.57 0.2 C5.2 -0.3, 4.43 -1.37, 4.12 -1.22" stroke="none" stroke-width="0" fill="#ffffff"/><path d="M2.58 0.55 C3.25 0.79, 4.89 1, 5.35 1.37 C5.82 1.75, 5.34 2.43, 5.39 2.79 C5.44 3.16, 5.91 3.04, 5.66 3.55 C5.41 4.07, 4.67 5.5, 3.89 5.87 C3.1 6.23, 1.59 6.02, 0.94 5.72 C0.3 5.43, 0.04 4.92, 0.01 4.09 C-0.03 3.26, 0.64 1.27, 0.72 0.76 C0.79 0.24, 0.05 1.26, 0.44 1.02 C0.84 0.78, 2.4 -0.65, 3.08 -0.7 C3.76 -0.75, 4.44 0.42, 4.54 0.73 M1 0.93 C1.75 0.74, 3.95 -0.24, 4.65 0 C5.34 0.23, 5.15 1.63, 5.17 2.34 C5.19 3.04, 4.84 3.68, 4.77 4.24 C4.69 4.81, 5.37 5.48, 4.73 5.72 C4.09 5.97, 1.47 5.89, 0.91 5.71 C0.36 5.54, 1.46 5.22, 1.4 4.68 C1.34 4.13, 0.85 3.17, 0.57 2.44 C0.29 1.71, -0.59 0.47, -0.3 0.31 C-0.01 0.14, 1.69 1.41, 2.31 1.46 C2.93 1.5, 3.23 0.91, 3.42 0.57" stroke="#ffffff" stroke-width="1" fill="none"/></g><g stroke-linecap="round" transform="translate(121.42080307536708 59.76457281756123) rotate(0 2.688249012485315 2.672741871662126)"><path d="M1.23 -0.55 C1.95 -0.94, 3.65 -0.48, 4.2 -0.18 C4.75 0.12, 4.33 0.92, 4.52 1.27 C4.71 1.62, 5.46 1.45, 5.35 1.91 C5.25 2.37, 4.28 3.45, 3.9 4.05 C3.52 4.65, 3.42 5.52, 3.07 5.52 C2.73 5.51, 2.28 4.22, 1.83 4.02 C1.39 3.81, 0.64 4.62, 0.4 4.27 C0.15 3.92, 0 2.64, 0.36 1.91 C0.72 1.18, 2.26 0.35, 2.55 -0.12 C2.83 -0.59, 2.1 -0.99, 2.08 -0.93 M4.65 -0.02 C4.86 -0.01, 3.51 0.39, 3.85 0.74 C4.19 1.08, 6.41 1.32, 6.68 2.04 C6.95 2.76, 5.95 4.57, 5.46 5.05 C4.97 5.53, 4.46 4.84, 3.77 4.92 C3.07 5.01, 1.76 5.95, 1.28 5.54 C0.8 5.13, 1.23 2.85, 0.88 2.46 C0.53 2.06, -1.12 3.48, -0.81 3.15 C-0.49 2.83, 1.97 1.25, 2.8 0.52 C3.63 -0.22, 4.17 -1.33, 4.17 -1.26 C4.17 -1.19, 3.12 0.51, 2.81 0.94" stroke="none" stroke-width="0" fill="#ffffff"/><path d="M2.42 0.48 C3.04 0.2, 3.12 0.22, 3.72 0.23 C4.33 0.24, 5.64 -0.07, 6.04 0.53 C6.44 1.12, 6.47 2.95, 6.14 3.79 C5.8 4.63, 4.62 5.21, 4.01 5.57 C3.39 5.93, 2.89 6.23, 2.46 5.93 C2.02 5.62, 1.97 4.1, 1.4 3.73 C0.83 3.37, -0.72 4.29, -0.95 3.74 C-1.18 3.19, -0.65 0.96, 0.02 0.43 C0.69 -0.11, 2.61 0.45, 3.08 0.52 C3.55 0.59, 3.02 0.97, 2.84 0.85 M3.29 -0.39 C4.05 -0.48, 4.12 0.63, 4.39 1.17 C4.66 1.71, 4.69 2.25, 4.92 2.85 C5.15 3.45, 6.18 4.29, 5.75 4.75 C5.31 5.21, 2.85 5.5, 2.32 5.62 C1.78 5.75, 2.77 5.81, 2.54 5.5 C2.3 5.2, 1.48 4.46, 0.91 3.8 C0.33 3.14, -0.94 1.86, -0.92 1.56 C-0.9 1.27, 0.22 2.2, 1.02 2.02 C1.82 1.85, 3.39 0.96, 3.86 0.49 C4.34 0.02, 4.06 -0.96, 3.88 -0.78" stroke="#ffffff" stroke-width="1" fill="none"/></g><g stroke-linecap="round" transform="translate(159.1842368827542 85.22897971096737) rotate(0 2.688249012485315 2.6727418716621223)"><path d="M4.13 -0.2 C4.66 0.05, 4.28 0.87, 4.48 1.21 C4.68 1.55, 5.45 1.38, 5.36 1.84 C5.27 2.3, 4.32 3.39, 3.95 4 C3.58 4.61, 3.48 5.5, 3.14 5.51 C2.8 5.52, 2.35 4.25, 1.89 4.05 C1.44 3.86, 0.68 4.69, 0.42 4.34 C0.16 3.99, 0.08 2.68, 0.33 1.97 C0.58 1.27, 1.5 0.6, 1.92 0.12 C2.33 -0.36, 2.51 -0.89, 2.83 -0.89 C3.15 -0.89, 3.7 -0.23, 3.84 0.1 M1.9 -0.22 C2.42 -0.33, 5.11 -0.47, 5.81 0.06 C6.5 0.59, 6.11 2.36, 6.07 2.97 C6.03 3.58, 6.01 3.25, 5.57 3.72 C5.14 4.19, 3.98 5.73, 3.44 5.78 C2.91 5.83, 3.07 4.1, 2.39 4.02 C1.7 3.94, -0.52 5.6, -0.66 5.31 C-0.81 5.02, 1.06 3.27, 1.51 2.26 C1.97 1.25, 1.9 -0.51, 2.06 -0.75 C2.22 -0.98, 2.47 0.54, 2.46 0.85 C2.44 1.16, 1.98 1.18, 1.98 1.12" stroke="none" stroke-width="0" fill="#ffffff"/><path d="M3.36 0.11 C3.97 0, 5.37 -0.34, 5.84 0.21 C6.31 0.76, 6.45 2.56, 6.19 3.42 C5.93 4.27, 4.85 4.9, 4.29 5.32 C3.73 5.74, 3.26 6.14, 2.83 5.92 C2.4 5.69, 2.32 4.26, 1.7 3.96 C1.08 3.66, -0.57 4.64, -0.88 4.11 C-1.19 3.57, -0.7 1.32, -0.16 0.76 C0.38 0.2, 1.72 0.72, 2.38 0.75 C3.03 0.77, 3.6 1.09, 3.76 0.92 C3.92 0.75, 3.38 -0.04, 3.33 -0.27 M3.42 0.64 C3.79 0.93, 4.07 1.31, 4.52 1.82 C4.97 2.33, 6.32 3.17, 6.11 3.71 C5.9 4.25, 3.68 4.72, 3.27 5.05 C2.86 5.38, 3.91 5.75, 3.63 5.68 C3.36 5.61, 2.39 5.14, 1.63 4.64 C0.88 4.13, -0.68 2.96, -0.9 2.67 C-1.12 2.38, -0.29 3.21, 0.32 2.88 C0.93 2.55, 2.05 1.3, 2.77 0.7 C3.49 0.1, 4.5 -0.85, 4.63 -0.72 C4.76 -0.59, 3.65 1.15, 3.53 1.47" stroke="#ffffff" stroke-width="1" fill="none"/></g><g stroke-linecap="round" transform="translate(164.9963132632922 78.93997259933333) rotate(0 2.688249012485315 2.6727418716621223)"><path d="M1.27 0.43 C1.61 0.06, 2.93 -0.86, 3.41 -0.81 C3.89 -0.76, 3.83 0.06, 4.17 0.72 C4.51 1.38, 5.26 2.64, 5.43 3.14 C5.6 3.64, 5.55 3.2, 5.17 3.7 C4.8 4.21, 3.82 5.93, 3.16 6.17 C2.51 6.41, 1.68 5.63, 1.25 5.13 C0.82 4.62, 0.84 3.89, 0.58 3.12 C0.33 2.36, -0.57 1.04, -0.29 0.52 C-0.01 0.01, 1.76 -0.03, 2.24 0.03 C2.73 0.08, 2.65 0.6, 2.62 0.82 M3.94 -0.64 C4.76 -0.54, 4.76 0.84, 5.09 1.24 C5.42 1.65, 5.96 1.23, 5.94 1.77 C5.92 2.32, 5.24 4.14, 4.98 4.52 C4.72 4.9, 5.07 3.69, 4.38 4.04 C3.69 4.39, 1.27 6.57, 0.85 6.6 C0.43 6.63, 1.8 5.16, 1.84 4.21 C1.87 3.27, 1.25 1.41, 1.04 0.96 C0.83 0.51, 0.45 1.49, 0.58 1.51 C0.71 1.53, 1.53 1.27, 1.82 1.06 C2.12 0.85, 2.28 0.57, 2.35 0.22" stroke="none" stroke-width="0" fill="#ffffff"/><path d="M4.13 -0.86 C4.81 -0.71, 5.42 0.78, 5.57 1.5 C5.72 2.22, 5.21 2.88, 5.05 3.46 C4.89 4.04, 4.85 4.82, 4.62 4.98 C4.39 5.13, 4.38 4.27, 3.67 4.39 C2.97 4.5, 1.02 5.96, 0.37 5.69 C-0.29 5.42, -0.34 3.34, -0.23 2.77 C-0.12 2.19, 0.71 2.51, 1.02 2.24 C1.33 1.97, 1.19 1.57, 1.6 1.15 C2.01 0.73, 3.01 -0.04, 3.46 -0.27 C3.92 -0.51, 4.18 -0.46, 4.32 -0.27 M1.91 0.62 C2.59 0.54, 4.54 0.84, 4.88 1.12 C5.23 1.4, 3.82 1.8, 4 2.29 C4.19 2.77, 5.9 3.6, 5.98 4.03 C6.06 4.46, 5.31 4.76, 4.5 4.87 C3.69 4.98, 1.8 4.54, 1.14 4.68 C0.49 4.83, 0.58 6, 0.58 5.73 C0.58 5.46, 0.92 4, 1.13 3.05 C1.34 2.1, 1.64 0.32, 1.85 0.03 C2.07 -0.26, 2.24 1.18, 2.4 1.32 C2.57 1.47, 3.07 1.24, 2.83 0.92" stroke="#ffffff" stroke-width="1" fill="none"/></g><g stroke-linecap="round" transform="translate(124.01266308320257 80.54341096045292) rotate(0 16.47168498241072 15.9313472755043)"><path d="M5.47 3.43 C5.47 3.43, 5.47 3.43, 5.47 3.43 M5.47 3.43 C5.47 3.43, 5.47 3.43, 5.47 3.43 M1.41 16.04 C4.41 9.51, 7.47 8.28, 11.7 2.34 M1.24 14.67 C5.46 9.34, 8.33 6.36, 13.25 1.62 M3.45 18.16 C9.68 12.25, 14.27 5.48, 16.34 1.17 M2.67 19.82 C7.6 12.01, 14.15 6.23, 19.03 0.47 M2.65 23.68 C10.32 17.05, 13.65 9.36, 23.49 1.23 M4.11 24.47 C10.63 15.14, 18.68 8.72, 22.71 2.9 M7.44 26.26 C9.18 21.85, 14.61 18.17, 25.52 2.32 M7.23 25.9 C14.61 19.29, 20.49 8.9, 26.38 3.79 M8.44 29.41 C17.48 21.42, 23.04 14.17, 30.65 7.8 M8.93 30.13 C15.94 23.02, 22.91 14.52, 29.98 6.65 M11.03 32.25 C17.56 28.47, 22.43 22.72, 30.71 10.72 M12.38 32.48 C18.03 24.89, 25.25 17.63, 30.74 9.63 M16.08 31.9 C21.8 28.39, 23.59 22.61, 32.58 13.94 M17.16 31.96 C21.28 27.23, 27.23 22.65, 33.13 14.69 M21.19 33.97 C23.91 29.01, 27.12 25.41, 32.49 22.51 M22.49 33.18 C24.99 29.32, 27.82 27.34, 31.16 22.15 M2.89 24.12 C2.89 24.12, 2.89 24.12, 2.89 24.12 M2.89 24.12 C2.89 24.12, 2.89 24.12, 2.89 24.12 M11.92 27.86 C10.3 25.09, 6.04 21.55, 1.08 18.29 M11.99 27.17 C9.17 23.93, 6.39 21.06, 2.01 17.99 M22.77 30.26 C15.31 26.03, 12.91 20.88, 2.85 14.15 M21.99 30.91 C17.69 25.71, 12.15 21.46, 1.74 11.71 M23.68 25.83 C15.68 19.12, 9.4 11.68, 1.3 7.97 M24.29 26.83 C16.73 21.26, 10.94 13.81, 2.53 8.87 M29.09 23.42 C21.56 20.61, 15.61 13.95, 3.32 5.62 M28.7 24.32 C20.29 19.03, 12.17 10.95, 4.14 3.91 M30.86 24.02 C25.49 16.01, 19.67 13.19, 8.81 1.9 M31.63 23.19 C26.14 18.27, 19.6 13.75, 6.42 1.63 M33.61 17.39 C26.27 11.33, 17.5 4.37, 9.9 1.81 M32.93 17.93 C25.85 12.22, 21.55 7.37, 11.35 -0.8 M34.4 14.2 C28.08 10.73, 24.32 7.16, 20.06 0.25 M34.11 13.01 C29.57 9.54, 25.59 6.42, 17.64 0.01" stroke="#77b153" stroke-width="0.5" fill="none"/><path d="M17.55 0.55 C20.69 0.68, 24.42 2.43, 26.93 4.67 C29.44 6.91, 31.91 10.91, 32.61 13.99 C33.31 17.08, 33.08 20.24, 31.13 23.19 C29.17 26.14, 24.37 30.56, 20.89 31.69 C17.4 32.82, 13.2 31.25, 10.2 30 C7.21 28.74, 4.55 26.88, 2.94 24.16 C1.33 21.45, 0.08 17.23, 0.55 13.72 C1.03 10.2, 2.64 5.46, 5.78 3.07 C8.92 0.68, 16.61 -0.36, 19.38 -0.61 C22.15 -0.87, 22.48 1.17, 22.38 1.56 M20.07 0.94 C23.27 1.27, 25.55 3.55, 27.83 6.1 C30.11 8.65, 33.45 12.93, 33.75 16.25 C34.06 19.56, 32.23 23.53, 29.67 25.99 C27.11 28.45, 21.95 30.15, 18.39 31.02 C14.82 31.88, 10.99 32.69, 8.28 31.17 C5.57 29.64, 3.15 25.47, 2.13 21.89 C1.11 18.31, 1.11 12.74, 2.14 9.66 C3.16 6.59, 5.34 4.87, 8.29 3.44 C11.23 2.01, 18.21 1.71, 19.8 1.08 C21.4 0.45, 17.88 -0.39, 17.85 -0.33" stroke="#ffffff" stroke-width="1" fill="none"/></g><g stroke-linecap="round" transform="translate(151.08123889793416 33.97098722767936) rotate(0 21.178274523818814 21.08523167887958)"><path d="M1.57 11.97 C1.57 11.97, 1.57 11.97, 1.57 11.97 M1.57 11.97 C1.57 11.97, 1.57 11.97, 1.57 11.97 M1.24 17.28 C5.44 14.74, 9.36 8.95, 13.9 5.52 M1.74 17.69 C3.97 15.43, 8.67 10.96, 13.72 4 M1.8 25.14 C5.76 19.06, 9.08 13.53, 20.34 1.89 M0.06 24.65 C7.99 17.09, 15.1 8.85, 19.66 3.68 M3.77 28.5 C6.28 21.9, 14.68 15.58, 28.15 -0.11 M2.68 27.99 C8.78 23.5, 14.3 16.31, 25.48 2.36 M3.91 32.19 C13.23 23.93, 20.78 11.72, 31.52 2.77 M5.89 33.25 C11.42 23.19, 19.69 15.48, 30.68 4.01 M8.49 35.92 C14.91 27.84, 24.92 18.61, 34.17 6.78 M7.82 36.58 C16.3 26.3, 23.94 17.61, 32.92 4.77 M10.64 40.23 C18.57 31.16, 23.39 23.42, 37.58 5.57 M9.37 38.75 C20.01 27.45, 27.72 17.05, 36.75 8.28 M15.02 40.57 C23.69 27.18, 34.56 16.02, 40.99 8.79 M13.33 40.23 C20.33 34.65, 25.48 27.74, 41.05 8.23 M16.6 40.4 C23.54 32.62, 32.06 27.7, 40.8 14.11 M18.65 40.33 C24.34 35.41, 28.22 29.19, 40.89 15.49 M21.25 40.66 C26.65 35.51, 31.71 31.73, 41.73 21.52 M23.44 41.75 C30.17 34, 36.18 26.36, 42.23 20.39 M27.83 45.17 C29.82 39.08, 33.45 35.81, 43.73 23.2 M26.6 43.94 C32.12 38.36, 36.5 33.5, 43.21 25.61 M9.54 39.33 C9.54 39.33, 9.54 39.33, 9.54 39.33 M9.54 39.33 C9.54 39.33, 9.54 39.33, 9.54 39.33 M16.52 40.21 C15.45 37.08, 8.54 34.06, 1.74 25.54 M16.54 41.16 C13.14 35.57, 6.34 31.98, 0.39 27.42 M23.82 42.27 C15.09 33.04, 5.44 27.33, 2.32 20.44 M24.64 42.81 C16.62 34.66, 7.26 26.49, 0.73 21.5 M27.9 38 C19.26 32.79, 11.51 24.33, 0.26 16.63 M28.13 39.86 C17.96 32.24, 8.44 23.46, 2.02 16.47 M32.45 36.9 C24.17 30.46, 16.48 27.64, 1.52 10.76 M30.63 36.45 C22.94 28.85, 12.86 20.73, 1.41 10.91 M33.91 35.82 C23.33 26.56, 16.33 17.26, 5.03 8.87 M36.04 35.16 C26.32 27.08, 14.97 17.74, 5.77 8.15 M40.11 31.27 C31.26 28.29, 24.88 22.33, 9.54 4.22 M37.74 32.31 C28.37 24.05, 18.54 15.99, 8.11 6.12 M41.05 26.99 C27.53 17.11, 17.06 11.13, 12.41 4.05 M40.77 29.65 C30.82 19.39, 21.09 12.92, 10.74 3.2 M40.51 23.61 C35.78 19.62, 28.87 14.61, 13.96 0.72 M41.99 24.99 C32.44 17.25, 24.56 10.17, 13.16 1.33 M43.3 19.68 C36.54 17.23, 31.12 9.58, 19.73 -1.47 M42.66 21.26 C33.82 11.59, 23.45 4.7, 18.78 -0.1 M43.38 13.28 C40.82 12.12, 35.52 9.95, 26.38 2.18 M43.18 15.2 C36.94 10.93, 32.26 6.27, 26.23 2.21" stroke="#77b153" stroke-width="0.5" fill="none"/><path d="M11.62 2.89 C15.22 0.79, 21.69 0.4, 26.23 1.22 C30.77 2.04, 36.35 4.13, 38.86 7.81 C41.38 11.5, 41.8 18.79, 41.32 23.31 C40.84 27.84, 38.84 31.75, 35.98 34.95 C33.13 38.16, 28.6 41.81, 24.2 42.54 C19.79 43.27, 13.5 42.03, 9.55 39.33 C5.6 36.63, 1.78 30.97, 0.5 26.35 C-0.77 21.73, -0.93 15.86, 1.89 11.6 C4.71 7.35, 14.13 2.69, 17.43 0.82 C20.73 -1.04, 21.67 0.16, 21.7 0.4 M24.11 0.84 C28.4 1.36, 35.4 4.83, 38.54 8.26 C41.67 11.69, 43.32 17.07, 42.92 21.43 C42.51 25.79, 39.19 30.77, 36.1 34.43 C33.01 38.08, 28.51 42.5, 24.38 43.36 C20.24 44.22, 14.96 42.31, 11.28 39.58 C7.59 36.85, 3.88 31.13, 2.26 26.98 C0.63 22.83, -0.02 18.62, 1.53 14.7 C3.07 10.77, 7.79 5.95, 11.52 3.42 C15.26 0.89, 21.56 0.03, 23.96 -0.46 C26.35 -0.96, 25.94 -0.26, 25.89 0.46" stroke="#ffffff" stroke-width="1" fill="none"/></g><g stroke-linecap="round" transform="translate(110.95668431944992 23.255897521972543) rotate(0 12.57923433169718 12.534964541609)"><path d="M1.2 6.34 C1.2 6.34, 1.2 6.34, 1.2 6.34 M1.2 6.34 C1.2 6.34, 1.2 6.34, 1.2 6.34 M0.07 14.71 C3.35 10, 8.22 5.69, 9.11 2.87 M-0.17 14.14 C4 10.07, 6.89 5.83, 9.3 3.32 M2.86 16.38 C4.19 13.05, 10.23 7.37, 17.68 1.72 M3.4 16.5 C8.58 10.66, 12.78 5.72, 15.55 0.66 M2.74 19.76 C10.37 14.25, 14.76 9.15, 18.66 4.36 M5.18 21.89 C10.58 15, 13.97 9.7, 20.37 3.42 M6.79 25.39 C10.97 17.2, 17.69 12.77, 23.58 6.44 M6.01 23.42 C10.53 19.68, 14.52 16.2, 23.77 4.28 M10.46 26.74 C16.48 21.99, 19.32 17.7, 24.04 9.45 M12 25.22 C16.8 19.63, 20.04 13.36, 23.72 9.71 M16.48 26.81 C17.85 23.47, 21.62 18.16, 25.77 15.22 M16.02 26.04 C18.31 22.34, 21.79 19.48, 25.86 14.79 M5.82 23.79 C5.82 23.79, 5.82 23.79, 5.82 23.79 M5.82 23.79 C5.82 23.79, 5.82 23.79, 5.82 23.79 M12.69 24.08 C9.94 21.4, 3.29 16.01, -0.37 14.43 M14.31 25.58 C8.51 21.17, 3.86 17.66, 0.48 14.79 M16.13 21.99 C10.25 18.44, 4.21 14.03, 2.45 9.41 M17.39 22.73 C11.77 19.25, 7.81 15.8, 0.55 8.95 M19.82 20.08 C12.89 15.71, 7.45 7.92, 1.95 4 M21.25 20.27 C15 15.73, 8.39 11.38, 1.39 5.04 M24.88 17.86 C19.76 15.33, 12.59 7.33, 5.33 1.55 M23.82 18.31 C17.57 12.09, 12.3 6.53, 4.89 1.82 M26.43 13.35 C19.72 10.4, 19.11 7.03, 9.48 -1.44 M25.83 13.31 C20.78 11.18, 17.35 8.6, 9.83 0.47 M24.16 7.73 C21.88 7.22, 21.69 4.68, 16.83 1.33 M24.72 8.39 C22.27 6.32, 20.73 5.28, 16.55 0.81" stroke="#77b153" stroke-width="0.5" fill="none"/><path d="M15.85 1.05 C18.5 1.3, 22.11 2.31, 23.49 4.54 C24.87 6.78, 24.54 11.79, 24.12 14.48 C23.7 17.17, 22.6 18.84, 20.98 20.68 C19.36 22.52, 16.97 25.04, 14.39 25.52 C11.81 25.99, 7.89 25.24, 5.5 23.52 C3.12 21.79, 0.79 18.02, 0.09 15.14 C-0.62 12.27, -0.04 8.53, 1.27 6.25 C2.59 3.97, 5.31 2.36, 7.99 1.49 C10.67 0.62, 15.46 0.96, 17.36 1.01 C19.26 1.06, 19.37 1.51, 19.39 1.79 M16.31 0.68 C19.14 1.02, 21.94 2.9, 23.25 4.9 C24.56 6.9, 24.42 9.74, 24.17 12.69 C23.92 15.63, 23.24 20.45, 21.74 22.58 C20.23 24.71, 17.64 25.55, 15.15 25.48 C12.66 25.41, 9.22 23.5, 6.8 22.16 C4.37 20.81, 1.47 19.7, 0.59 17.41 C-0.29 15.11, 0.7 11.22, 1.53 8.39 C2.35 5.57, 3.12 1.85, 5.55 0.44 C7.98 -0.96, 14.68 -0.28, 16.12 -0.03 C17.56 0.22, 14.4 1.75, 14.19 1.93" stroke="#ffffff" stroke-width="1" fill="none"/></g></svg>